<?xml version="1.0" encoding="UTF-8"?>
<svg version="1.1" xmlns="http://www.w3.org/2000/svg" width="1024" height="350"
  viewBox="0, 440, 1024, 100"
  >
<path d="M0 0 C19.17896987 17.08764603 32.81247409 40.50476554 39.8125 65.125 C40.00739014 65.80401367 40.20228027 66.48302734 40.40307617 67.18261719 C43.5628161 79.01945694 44.36675063 90.98187335 44.3125 103.1875 C44.31001251 103.86286804 44.30752502 104.53823608 44.30496216 105.23406982 C44.09125118 142.92380552 30.65895242 173.77773919 4.375 200.6875 C3.59125 201.450625 2.8075 202.21375 2 203 C1.57332031 203.48339844 1.14664063 203.96679688 0.70703125 204.46484375 C-21.50723411 228.73492801 -57.36527839 239.26368901 -89.10986328 240.89794922 C-124.78063674 242.15748489 -157.55473373 230.69411044 -185 208 C-185.54736816 207.55043945 -186.09473633 207.10087891 -186.65869141 206.63769531 C-208.74741741 188.21562954 -222.75502677 162.85005737 -229 135 C-229.21398437 134.07832031 -229.42796875 133.15664063 -229.6484375 132.20703125 C-236.6592385 97.00061752 -229.92548878 58.4699594 -211 28 C-207.53898661 22.84740242 -203.80556634 17.90110817 -200 13 C-199.27296875 12.03320312 -198.5459375 11.06640625 -197.796875 10.0703125 C-197.20390625 9.38710938 -196.6109375 8.70390625 -196 8 C-195.34 8 -194.68 8 -194 8 C-193.75378906 7.4225 -193.50757813 6.845 -193.25390625 6.25 C-185.25114272 -8.11009905 -163.48743098 -18.60520253 -149 -25 C-147.91332031 -25.48082031 -146.82664062 -25.96164062 -145.70703125 -26.45703125 C-95.83172952 -46.96476401 -40.04514574 -34.32785686 0 0 Z M-169 37 C-171.3332515 41.00985258 -171.25857435 44.81414276 -171.2746582 49.38208008 C-171.27976913 50.10813446 -171.28488007 50.83418884 -171.29014587 51.58224487 C-171.30401872 53.97809154 -171.30308479 56.37364921 -171.30078125 58.76953125 C-171.3046736 60.45041509 -171.30900938 62.13129795 -171.31376648 63.81217957 C-171.32122682 67.34023212 -171.32094181 70.86818465 -171.31567383 74.39624023 C-171.30992393 78.87308938 -171.32670145 83.34951874 -171.3500185 87.82629871 C-171.364913 91.3037701 -171.36560571 94.78114455 -171.36250877 98.2586422 C-171.36301562 99.90612293 -171.36813092 101.55361004 -171.37832069 103.20105934 C-171.52873552 130.95574915 -163.50470404 151.13403566 -143.91796875 171.125 C-130.48512522 183.88495527 -113.0059928 190.51783302 -94.625 191.3125 C-77.86882852 190.79269176 -61.79113161 184.69109508 -49 174 C-48.07445312 173.236875 -47.14890625 172.47375 -46.1953125 171.6875 C-30.62454235 158.23021389 -19.40372744 139.54343687 -17.20596313 118.8429718 C-16.76531995 112.76063988 -16.85739452 106.65761474 -16.8671875 100.5625 C-16.86651234 99.07234684 -16.86554056 97.5821938 -16.86428833 96.09204102 C-16.86282133 92.98224836 -16.86493365 89.87248459 -16.86962891 86.76269531 C-16.87532558 82.79883015 -16.87204121 78.83503273 -16.86605644 74.87117004 C-16.86242379 71.79804993 -16.86360179 68.72494557 -16.86618423 65.65182495 C-16.86684604 64.19115185 -16.86605153 62.73047727 -16.86370468 61.26980591 C-15.99935529 48.22454951 -15.99935529 48.22454951 -19.875 36.5 C-23.44337969 33.98114375 -26.35821925 33.87199202 -30.60409546 33.85955811 C-31.77056107 33.85384796 -32.93702667 33.84813782 -34.13883972 33.84225464 C-36.06050713 33.84057785 -36.06050713 33.84057785 -38.02099609 33.83886719 C-39.38276809 33.83423827 -40.74453879 33.82921351 -42.10630798 33.82382202 C-45.80676077 33.81070402 -49.50719542 33.80425436 -53.20766783 33.79981136 C-55.51952706 33.79687996 -57.83138133 33.79277504 -60.14323807 33.78830719 C-67.37646854 33.77463447 -74.60968769 33.76496644 -81.8429302 33.7611053 C-90.19291619 33.75662351 -98.54273857 33.73906917 -106.8926748 33.7101047 C-113.34711587 33.68849235 -119.80151089 33.67840128 -126.25598776 33.67706418 C-130.11099323 33.67601592 -133.96584485 33.6701037 -137.82081223 33.65224457 C-141.44713703 33.63577127 -145.07319221 33.63360461 -148.69954109 33.64238358 C-150.6630817 33.64352158 -152.62661333 33.62979887 -154.59010315 33.6156311 C-155.7622084 33.62120026 -156.93431366 33.62676941 -158.14193726 33.63250732 C-159.15846563 33.63104076 -160.17499401 33.6295742 -161.22232628 33.6280632 C-164.48154214 34.06447958 -166.35768346 35.07189785 -169 37 Z " fill="#E86A21" transform="translate(283,388)"/>
<path d="M0 0 C4.65981026 0.04483387 9.31927956 0.0597452 13.97927666 0.06923103 C17.6150986 0.0820412 21.25047484 0.11664583 24.8860817 0.15734482 C26.6076125 0.17277497 28.32923917 0.17993394 30.05083847 0.17844009 C32.42769004 0.17826142 34.80221594 0.20903185 37.17871094 0.24755859 C37.87767487 0.240504 38.57663879 0.2334494 39.29678345 0.22618103 C42.93064506 0.32025783 44.37673528 0.68932999 47.039505 3.23910522 C50.76343091 9.56006505 49.78065262 17.94492894 49.78857422 25.07910156 C49.79356682 26.6699054 49.79356682 26.6699054 49.79866028 28.29284668 C49.80370476 30.53181528 49.80606937 32.77079135 49.8059082 35.00976562 C49.80808082 38.38457111 49.82622511 41.75904187 49.84521484 45.13378906 C49.91905638 72.67490334 46.78302255 94.46197764 26.62060547 114.92285156 C15.34575084 126.21625036 1.84261158 134.935754 -14.50439453 135.36035156 C-31.78333331 134.75473706 -46.79904994 125.07141677 -58.50439453 112.79785156 C-72.8089381 95.89248189 -76.52841438 76.5380818 -76.54736328 54.87597656 C-76.55058364 53.53318243 -76.55394827 52.19038864 -76.55744934 50.84759521 C-76.56339886 48.05056951 -76.56529325 45.25357454 -76.56469727 42.45654297 C-76.56459514 38.88009301 -76.57831737 35.30383934 -76.59546947 31.72743607 C-76.60659871 28.96157936 -76.6086163 26.19577029 -76.60808754 23.42989349 C-76.6098326 21.47288034 -76.62065392 19.51588204 -76.63163757 17.55889893 C-76.62856094 16.36705994 -76.62548431 15.17522095 -76.62231445 13.94726562 C-76.62445198 12.37915131 -76.62445198 12.37915131 -76.62663269 10.77935791 C-76.36380606 7.74274759 -75.78659308 5.62182134 -74.37939453 2.92285156 C-70.87479942 0.58645482 -69.31317318 0.62230235 -65.15625 0.50439453 C-63.85342072 0.46492706 -62.55059143 0.42545959 -61.20828247 0.38479614 C-59.76273319 0.35241817 -58.31716536 0.32085945 -56.87158203 0.29003906 C-56.13015835 0.27144711 -55.38873466 0.25285515 -54.6248436 0.2336998 C-36.41785985 -0.22257952 -18.2104269 -0.18077859 0 0 Z M-42.37939453 24.92285156 C-43.31363098 27.933169 -43.42389364 28.78935424 -42.37939453 31.92285156 C-30.82939453 32.25285156 -19.27939453 32.58285156 -7.37939453 32.92285156 C-6.88439453 38.86285156 -6.88439453 38.86285156 -6.37939453 44.92285156 C-23.70439453 45.41785156 -23.70439453 45.41785156 -41.37939453 45.92285156 C-42.03939453 47.24285156 -42.69939453 48.56285156 -43.37939453 49.92285156 C-42.71939453 51.24285156 -42.05939453 52.56285156 -41.37939453 53.92285156 C-29.82939453 53.92285156 -18.27939453 53.92285156 -6.37939453 53.92285156 C-11.62058076 62.30874953 -14.67967136 64.8567075 -23.62939453 67.11035156 C-28.34072335 68.047684 -33.08678173 68.37708141 -37.87548828 68.67675781 C-40.37522671 68.7717748 -40.37522671 68.7717748 -42.37939453 69.92285156 C-42.86161488 77.33150958 -39.71965043 82.11392321 -35.37939453 87.92285156 C-28.73309897 94.57835252 -20.03539507 102.72968676 -10.25439453 103.61035156 C-5.29029682 102.72962455 -2.52635843 100.82911198 0.62060547 96.92285156 C1.65313483 94.21477005 1.65313483 94.21477005 1.62060547 91.92285156 C0.30060547 92.91285156 -1.01939453 93.90285156 -2.37939453 94.92285156 C-2.37939453 94.26285156 -2.37939453 93.60285156 -2.37939453 92.92285156 C-1.71939453 92.59285156 -1.05939453 92.26285156 -0.37939453 91.92285156 C-1.86439453 91.68501953 -1.86439453 91.68501953 -3.37939453 91.44238281 C-13.79793102 89.65122285 -20.77988545 87.52090479 -27.37939453 78.92285156 C-26.55697266 78.70371094 -25.73455078 78.48457031 -24.88720703 78.25878906 C-12.2367036 74.66522804 -3.42862513 69.26761643 5.06591797 59.21191406 C7.10681118 57.51971617 8.43666015 57.56050261 11.05810547 57.48535156 C14.33225258 57.21829225 15.45828046 57.03493312 18.24560547 55.11035156 C19.8346959 53.05236525 19.8346959 53.05236525 19.49560547 50.79785156 C18.66510326 48.73952065 18.66510326 48.73952065 16.62060547 46.92285156 C14.02012613 46.64138252 14.02012613 46.64138252 11.12060547 46.73535156 C10.14091797 46.74179687 9.16123047 46.74824219 8.15185547 46.75488281 C5.62691163 46.7584443 5.62691163 46.7584443 3.62060547 47.92285156 C3.62060547 42.64285156 3.62060547 37.36285156 3.62060547 31.92285156 C6.21935547 32.23222656 6.21935547 32.23222656 8.87060547 32.54785156 C12.84857627 33.02141952 15.17885025 33.06985125 18.62060547 30.92285156 C18.62060547 28.94285156 18.62060547 26.96285156 18.62060547 24.92285156 C13.60016101 22.22617863 8.45455497 22.63477252 2.91357422 22.65722656 C1.87421219 22.65531311 0.83485016 22.65339966 -0.23600769 22.65142822 C-2.43232465 22.65006905 -4.62864971 22.6537468 -6.82495117 22.66210938 C-10.16945688 22.67277998 -13.51342147 22.66222159 -16.85791016 22.64941406 C-18.99658321 22.65073634 -21.13525593 22.65330014 -23.27392578 22.65722656 C-24.26689163 22.6531781 -25.25985748 22.64912964 -26.28291321 22.6449585 C-31.9919286 22.68307482 -36.90192758 23.29348616 -42.37939453 24.92285156 Z " fill="#E86A21" transform="translate(202.37939453125,432.0771484375)"/>
<path d="M0 0 C10.69963516 8.77631505 14.86553512 18.22731612 16.375 31.8125 C4 32.3075 4 32.3075 -8.625 32.8125 C-9.76432292 29.81770833 -10.90364583 26.82291667 -12.04296875 23.828125 C-14.47077718 19.20030251 -17.92950676 16.71317024 -22.8125 15 C-28.69158184 13.23236908 -34.24484009 13.29986389 -39.89453125 15.828125 C-47.96525452 20.55975497 -51.28732243 26.92491454 -53.625 35.8125 C-55.58270257 47.10897292 -54.94639001 58.90626559 -48.9375 68.9375 C-44.84416077 74.37507162 -40.24443141 76.22101549 -33.75 77.6875 C-26.98706917 78.24884999 -20.96386709 76.96495218 -15.625 72.8125 C-14.965 72.8125 -14.305 72.8125 -13.625 72.8125 C-12.635 70.8325 -12.635 70.8325 -11.625 68.8125 C-10.305 66.1725 -8.985 63.5325 -7.625 60.8125 C0.295 60.8125 8.215 60.8125 16.375 60.8125 C17.82678429 63.71606857 16.85981423 65.19628168 15.875 68.25 C11.11391869 81.81826927 2.957726 91.48316729 -9.97265625 97.8046875 C-23.32772112 102.87921878 -38.54079953 102.49821195 -51.625 96.8125 C-63.55453792 91.06045461 -71.93072527 82.05408823 -76.84765625 69.75390625 C-82.65621682 53.07771623 -82.35728242 33.9214217 -74.625 17.8125 C-67.26992463 5.57155314 -57.13173281 -3.85111619 -43.25390625 -7.875 C-28.11484684 -11.36303929 -12.62679391 -9.22973768 0 0 Z " fill="#E86A21" transform="translate(655.625,441.1875)"/>
<path d="M0 0 C7.59 0 15.18 0 23 0 C23.33 11.55 23.66 23.1 24 35 C26.97 33.02 29.94 31.04 33 29 C41.63697749 25.66642974 49.60542067 26.47106856 58 30 C67.00677023 34.98246864 72.04626557 43.34526102 75.24609375 52.91796875 C78.44829422 66.00882974 77.73210256 80.1523853 71 92 C65.97746392 100.11677705 59.48779658 105.86824816 50.21484375 108.53125 C42.3614497 110.19334398 34.37603185 108.78281637 27.5859375 104.46484375 C25.66764942 103.03121149 23.81252851 101.564445 22 100 C22.020625 100.804375 22.04125 101.60875 22.0625 102.4375 C22 105 22 105 21 106 C19.5112814 106.08669432 18.018555 106.10703494 16.52734375 106.09765625 C15.71773193 106.09515869 14.90812012 106.09266113 14.07397461 106.09008789 C13.03893799 106.08098389 12.00390137 106.07187988 10.9375 106.0625 C9.16479709 106.05101153 7.39209181 106.0398853 5.61938477 106.02905273 C4.07958984 106.01936849 2.53979492 106.00968424 1 106 C-0.22325781 84.78399312 -0.11978317 63.58228696 -0.06866455 42.33996582 C-0.05827196 37.55216929 -0.05383346 32.76436716 -0.04882812 27.9765625 C-0.03823442 18.65102501 -0.0207078 9.32552052 0 0 Z M25.75 52 C21.05481226 60.04889326 21.32351067 70.06274391 23 79 C24.57700125 82.92381827 27.25527598 86.02361788 31 88 C36.31834721 89.11513732 39.98790959 89.45035531 45 87 C49.95285793 83.1989695 51.77777389 78.9595366 53 73 C53.83995994 65.67048655 53.20402077 58.13309997 48.55859375 52.140625 C44.82312522 48.50049325 41.34291369 47.07091185 36.140625 46.83203125 C31.69097925 47.18118229 29.00002083 49.11109259 25.75 52 Z " fill="#E86A21" transform="translate(496,433)"/>
<path d="M0 0 C0.98484375 -0.00128906 1.9696875 -0.00257813 2.984375 -0.00390625 C4.02078125 -0.00003906 5.0571875 0.00382812 6.125 0.0078125 C7.67960938 0.00201172 7.67960938 0.00201172 9.265625 -0.00390625 C10.25046875 -0.00261719 11.2353125 -0.00132812 12.25 0 C13.16007813 0.00112793 14.07015625 0.00225586 15.0078125 0.00341797 C17.125 0.1328125 17.125 0.1328125 18.125 1.1328125 C18.21343793 3.58111676 18.24028752 6.00101849 18.22265625 8.44921875 C18.2212413 9.18027328 18.21982635 9.91132782 18.21836853 10.66453552 C18.21275408 13.00816882 18.20019922 15.35170789 18.1875 17.6953125 C18.18248686 19.28059758 18.17792363 20.86588416 18.17382812 22.45117188 C18.16277997 26.3450886 18.14550572 30.23893455 18.125 34.1328125 C19.06142334 33.33069336 19.99784668 32.52857422 20.96264648 31.70214844 C23.59309629 29.44896439 25.79422851 28.26474043 29.1875 27.3828125 C30.00347656 27.16109375 30.81945312 26.939375 31.66015625 26.7109375 C32.47355469 26.52015625 33.28695312 26.329375 34.125 26.1328125 C34.94226563 25.91882813 35.75953125 25.70484375 36.6015625 25.484375 C43.34853122 24.54439484 50.89578579 27.86826513 56.40625 31.6171875 C62.06971684 36.61133553 64.98472144 43.87840268 65.5390625 51.30078125 C65.620821 52.9734381 65.69024578 54.64672509 65.75 56.3203125 C65.78722168 57.23707764 65.82444336 58.15384277 65.86279297 59.09838867 C66.19931549 68.71099174 66.23118413 78.32783965 66.25 87.9453125 C66.25267883 88.73972748 66.25535767 89.53414246 66.25811768 90.35263062 C66.26391863 92.61924925 66.26227203 94.88572459 66.2578125 97.15234375 C66.25978638 97.84300934 66.26176025 98.53367493 66.26379395 99.24526978 C66.24031209 104.01750041 66.24031209 104.01750041 65.125 105.1328125 C63.49027118 105.21981592 61.85185945 105.23982313 60.21484375 105.23046875 C59.22548828 105.22724609 58.23613281 105.22402344 57.21679688 105.22070312 C56.17587891 105.21232422 55.13496094 105.20394531 54.0625 105.1953125 C53.01771484 105.19080078 51.97292969 105.18628906 50.89648438 105.18164062 C48.3059334 105.16981163 45.71549441 105.15332939 43.125 105.1328125 C43.095271 103.19631836 43.095271 103.19631836 43.06494141 101.22070312 C42.98854015 96.40475843 42.8998771 91.58910233 42.80761719 86.7734375 C42.76946956 84.69406862 42.73459255 82.61463695 42.703125 80.53515625 C42.65716446 77.53623092 42.59922236 74.53773262 42.5390625 71.5390625 C42.52751129 70.61790649 42.51596008 69.69675049 42.50405884 68.74768066 C42.32781959 59.0971881 42.32781959 59.0971881 38.125 50.6953125 C34.3268055 47.72797304 30.81540546 47.62866143 26.125 48.1328125 C22.24238976 49.82090391 20.74285217 51.29470915 19.125 55.1328125 C17.86573886 61.30651912 17.9892685 67.70719025 18.02734375 73.98046875 C18.02946617 75.32642372 18.02946617 75.32642372 18.03163147 76.6995697 C18.0371749 79.53151964 18.04971642 82.36338695 18.0625 85.1953125 C18.06752233 87.12955614 18.07208394 89.06380103 18.07617188 90.99804688 C18.0862697 95.70969192 18.10585559 100.42116104 18.125 105.1328125 C10.535 105.1328125 2.945 105.1328125 -4.875 105.1328125 C-6.00004291 95.0074263 -6.00004291 95.0074263 -6.00198364 91.45068359 C-6.00480347 90.64041214 -6.00762329 89.83014069 -6.01052856 88.99531555 C-6.00850433 88.14092392 -6.0064801 87.28653229 -6.00439453 86.40625 C-6.00614685 85.47995285 -6.00789917 84.5536557 -6.00970459 83.59928894 C-6.01407008 80.56877718 -6.01120589 77.53832475 -6.0078125 74.5078125 C-6.0084866 72.39314767 -6.00945752 70.27848292 -6.01071167 68.16381836 C-6.01218105 63.74934139 -6.01005684 59.33488475 -6.00537109 54.92041016 C-5.9996462 49.2495972 -6.00297496 43.57883129 -6.00894356 37.90802002 C-6.01254587 33.55018759 -6.0114126 29.19236645 -6.00881577 24.83453369 C-6.00814703 22.74204503 -6.00897308 20.64955535 -6.01129532 18.55706787 C-6.01381943 15.6460902 -6.00998597 12.73519057 -6.00439453 9.82421875 C-6.00641876 8.95363327 -6.00844299 8.08304779 -6.01052856 7.18608093 C-5.98483066 0.00741746 -5.98483066 0.00741746 0 0 Z " fill="#E86A22" transform="translate(681.875,433.8671875)"/>
<path d="M0 0 C0.98484375 -0.00128906 1.9696875 -0.00257813 2.984375 -0.00390625 C4.02078125 -0.00003906 5.0571875 0.00382812 6.125 0.0078125 C7.67960938 0.00201172 7.67960938 0.00201172 9.265625 -0.00390625 C10.25046875 -0.00261719 11.2353125 -0.00132812 12.25 0 C13.16007813 0.00112793 14.07015625 0.00225586 15.0078125 0.00341797 C17.125 0.1328125 17.125 0.1328125 18.125 1.1328125 C18.21833705 2.72892232 18.24245372 4.32914678 18.23852539 5.92797852 C18.23844986 6.94896133 18.23837433 7.96994415 18.23829651 9.02186584 C18.23313522 10.1322673 18.22797394 11.24266876 18.22265625 12.38671875 C18.2212413 13.51730209 18.21982635 14.64788544 18.21836853 15.81272888 C18.21275019 19.44028315 18.20019458 23.06777674 18.1875 26.6953125 C18.18248736 29.14778557 18.17792405 31.6002596 18.17382812 34.05273438 C18.1627748 40.07944795 18.14601884 46.10612589 18.125 52.1328125 C18.90875 51.1428125 19.6925 50.1528125 20.5 49.1328125 C21.36625 48.1428125 22.2325 47.1528125 23.125 46.1328125 C23.785 46.1328125 24.445 46.1328125 25.125 46.1328125 C25.36347656 45.5759375 25.60195313 45.0190625 25.84765625 44.4453125 C27.41386889 41.60984497 29.35973009 39.50558272 31.5625 37.1328125 C34.7355293 33.78505926 34.7355293 33.78505926 37.34716797 30.01855469 C39.125 28.1328125 39.125 28.1328125 42.12768555 27.58691406 C43.3269165 27.5659668 44.52614746 27.54501953 45.76171875 27.5234375 C47.06044922 27.49121094 48.35917969 27.45898438 49.69726562 27.42578125 C51.06900595 27.41103664 52.44075093 27.39671919 53.8125 27.3828125 C55.19600111 27.35465375 56.57946744 27.32472642 57.96289062 27.29296875 C61.35032021 27.22215141 64.73705667 27.16951074 68.125 27.1328125 C67.35427129 30.73652771 66.35845516 32.18422174 63.625 34.6953125 C59.50296761 38.65540791 55.95476354 42.91446782 52.37890625 47.3671875 C49.08880469 51.40426186 45.62142422 55.2743607 42.125 59.1328125 C43.60230683 63.17867719 45.55114037 66.68593156 47.79296875 70.359375 C48.1508699 70.94770111 48.50877106 71.53602722 48.8775177 72.1421814 C49.63475664 73.38541748 50.39380113 74.62755541 51.15454102 75.86865234 C52.29494641 77.72917458 53.43021687 79.59274312 54.56445312 81.45703125 C58.58286409 88.04808962 62.66482689 94.58358189 66.90356445 101.03662109 C68.125 103.1328125 68.125 103.1328125 68.125 105.1328125 C63.91785562 105.39503064 59.71281109 105.55428854 55.5 105.6953125 C53.71529297 105.80842773 53.71529297 105.80842773 51.89453125 105.92382812 C43.27081456 106.14062547 43.27081456 106.14062547 40.10400391 103.35522461 C38.52695364 101.01762349 37.31109061 98.68881494 36.125 96.1328125 C35.35774051 94.81232845 34.57989084 93.49791143 33.7890625 92.19140625 C33.10595745 90.98630583 32.42619359 89.77930454 31.75 88.5703125 C31.39550781 87.94318359 31.04101562 87.31605469 30.67578125 86.66992188 C29.82244473 85.1592856 28.97324846 83.64631166 28.125 82.1328125 C27.465 82.1328125 26.805 82.1328125 26.125 82.1328125 C26.021875 81.3696875 25.91875 80.6065625 25.8125 79.8203125 C25.08135961 76.96221826 24.35548087 75.97538365 22.125 74.1328125 C19.42746841 76.44346824 18.21725087 78.32766185 17.81103516 81.87304688 C17.76741449 85.21695603 17.82658981 88.54046808 17.9375 91.8828125 C17.98952072 94.16918661 18.03790504 96.4556474 18.08203125 98.7421875 C18.11272705 99.75249023 18.14342285 100.76279297 18.17504883 101.80371094 C18.125 104.1328125 18.125 104.1328125 17.125 105.1328125 C13.35415254 105.1933276 9.59642156 105.15298409 5.82617188 105.09375 C4.63411133 105.08214844 4.63411133 105.08214844 3.41796875 105.0703125 C2.6911792 105.05871094 1.96438965 105.04710937 1.21557617 105.03515625 C-0.9366535 105.1356925 -2.80831008 105.54074794 -4.875 106.1328125 C-5.68252693 103.29253905 -6.00048065 100.77342756 -6.00198364 97.82417297 C-6.00480347 96.97028992 -6.00762329 96.11640686 -6.01052856 95.23664856 C-6.00850433 94.30817612 -6.0064801 93.37970367 -6.00439453 92.4230957 C-6.00614685 91.43900726 -6.00789917 90.45491882 -6.00970459 89.44100952 C-6.01410582 86.18851966 -6.01119185 82.93608416 -6.0078125 79.68359375 C-6.00848587 77.42726125 -6.00945618 75.17092881 -6.01071167 72.91459656 C-6.01218616 68.18776763 -6.01004143 63.46095759 -6.00537109 58.73413086 C-5.99966416 52.66073516 -6.00296048 46.58738355 -6.00894356 40.51398945 C-6.01254751 35.85676233 -6.01141152 31.19954577 -6.00881577 26.54231834 C-6.00814654 24.30190208 -6.00897475 22.06148488 -6.01129532 19.82106972 C-6.01382018 16.69880232 -6.00998405 13.57660765 -6.00439453 10.4543457 C-6.00641876 9.51980057 -6.00844299 8.58525543 -6.01052856 7.62239075 C-5.9851296 0.00741783 -5.9851296 0.00741783 0 0 Z " fill="#E86A21" transform="translate(912.875,433.8671875)"/>
<path d="M0 0 C11.58460516 11.90639975 12.25 23.84649636 12.25 40.3125 C-4.25 40.6425 -20.75 40.9725 -37.75 41.3125 C-35.19085445 50.3265812 -35.19085445 50.3265812 -28.75 55.3125 C-23.33019461 56.91836826 -18.81232789 56.44686974 -13.57421875 54.4921875 C-11.51315702 53.34254145 -11.51315702 53.34254145 -10.12890625 50.71484375 C-7.41632803 47.97554062 -6.88093984 47.94882832 -3.203125 47.82421875 C-1.46807644 47.85733036 0.26663171 47.91678808 2 48 C3.33224609 48.03383789 3.33224609 48.03383789 4.69140625 48.06835938 C6.87932812 48.12717448 9.06379671 48.20928732 11.25 48.3125 C10.29885109 55.92169126 6.70248217 62.33459411 1.125 67.625 C-8.71949021 75.15313957 -18.82625178 76.4122032 -30.75 75.3125 C-39.34596187 74.01564594 -46.06980376 69.86051544 -51.5390625 63.1015625 C-59.42121701 51.72485673 -60.88351854 39.89927943 -59.75 26.3125 C-57.59140268 14.68074417 -52.6518199 5.72083815 -43.05078125 -1.25 C-29.79679685 -9.53092744 -12.96191119 -7.95390005 0 0 Z M-32.75 14.3125 C-36.37280288 19.93963896 -36.37280288 19.93963896 -37.75 26.3125 C-28.18 26.3125 -18.61 26.3125 -8.75 26.3125 C-9.37132128 19.83346278 -9.37132128 19.83346278 -12.625 15.4375 C-13.13804687 14.86257813 -13.65109375 14.28765625 -14.1796875 13.6953125 C-17.26719585 10.97646186 -20.72792504 11.01545962 -24.6953125 11.1171875 C-28.15666545 11.44621345 -29.95469119 12.2004889 -32.75 14.3125 Z " fill="#E86A21" transform="translate(478.75,466.6875)"/>
<path d="M0 0 C1.36125 0.8353125 1.36125 0.8353125 2.75 1.6875 C13.68926511 12.93063358 14 25.75960329 14 41 C-2.5 41 -19 41 -36 41 C-34.51351534 48.95437009 -34.51351534 48.95437009 -29.9375 54.6875 C-24.26764179 57.2208409 -18.00816346 57.65224495 -12 56 C-11.505 55.01 -11.505 55.01 -11 54 C-6.46511628 49.23255814 -6.46511628 49.23255814 -4 48 C-1.11629667 47.92805131 1.74239664 47.90708292 4.625 47.9375 C5.42679688 47.94201172 6.22859375 47.94652344 7.0546875 47.95117188 C9.03649006 47.96296832 11.01825433 47.98090395 13 48 C13.42651065 54.93384453 9.60599945 59.65982938 5.8125 65.1875 C-1.41762157 72.41762157 -10.03307756 76.28043853 -20.25 76.3125 C-31.77115926 76.12066875 -39.40267695 73.36824933 -47.6875 65.37109375 C-55.93670359 56.48257688 -58.517714 44.7185456 -58.25 32.85546875 C-57.27872152 21.76164741 -53.49089793 10.31476738 -45.15625 2.6015625 C-31.64999363 -7.43025835 -14.41324819 -9.36580719 0 0 Z M-31 15 C-34.62442824 20.62616893 -34.62442824 20.62616893 -36 27 C-26.43 27 -16.86 27 -7 27 C-8.63392458 19.3779551 -8.63392458 19.3779551 -13 14 C-18.93036335 10.6341181 -25.54945006 10.97133265 -31 15 Z " fill="#E86A21" transform="translate(812,466)"/>
<path d="M0 0 C5.45224686 4.32085176 9.11585486 9.25354481 11 16 C11.495 20.455 11.495 20.455 12 25 C1.605 25.495 1.605 25.495 -9 26 C-10.65 23.03 -12.3 20.06 -14 17 C-17.11084654 14.06691612 -19.79625668 13.77328185 -23.9375 13.5625 C-28.7441333 13.7553367 -31.49722698 14.49722698 -35 18 C-39.88567452 25.95448882 -40.30303628 34.93273734 -38.375 43.91015625 C-36.91988189 48.32098302 -35.38669483 51.29665513 -31.3125 53.6875 C-25.73816345 55.8922749 -20.59953946 55.09758333 -15.1875 52.8125 C-12.76212893 51.06729009 -12.76212893 51.06729009 -11.56640625 47.91015625 C-9 45 -9 45 -6.6159668 44.51196289 C-3.64071086 44.40863929 -0.72332162 44.47784322 2.25 44.625 C3.796875 44.66560547 3.796875 44.66560547 5.375 44.70703125 C7.9187875 44.77769201 10.45833099 44.87627922 13 45 C12.54434096 46.42315427 12.08372949 47.84472338 11.62109375 49.265625 C11.36513428 50.05743164 11.1091748 50.84923828 10.84545898 51.66503906 C8.09950157 59.24873433 3.51855686 65.38789561 -3.3125 69.6875 C-4.21613281 70.26886719 -5.11976563 70.85023438 -6.05078125 71.44921875 C-15.41753901 76.37452051 -27.33469682 76.58873634 -37.5234375 74.16015625 C-48.16199441 70.09890766 -55.13941573 63.48568626 -59.84765625 53.15625 C-64.34208121 40.84609622 -64.25909004 27.50117215 -59.25 15.375 C-54.6808871 5.90326231 -48.18798001 -1.07079427 -38.296875 -5.1015625 C-25.31643575 -9.06986821 -11.22760968 -7.86767444 0 0 Z " fill="#E86A21" transform="translate(892,467)"/>
<path d="M0 0 C3.81248426 -0.02887236 7.6249407 -0.04675492 11.4375 -0.0625 C12.52611328 -0.07087891 13.61472656 -0.07925781 14.73632812 -0.08789062 C15.77080078 -0.09111328 16.80527344 -0.09433594 17.87109375 -0.09765625 C18.82943115 -0.10289307 19.78776855 -0.10812988 20.77514648 -0.11352539 C23 0 23 0 24 1 C24.11093646 3.38090316 24.15738288 5.73307328 24.16113281 8.11499023 C24.16858017 9.23228264 24.16858017 9.23228264 24.17617798 10.37214661 C24.19084935 12.85097159 24.19761344 15.32973237 24.203125 17.80859375 C24.20887691 19.53198753 24.21463464 21.25538129 24.22039795 22.97877502 C24.23092515 26.60295917 24.23675505 30.22712106 24.24023438 33.85131836 C24.24569145 38.4745718 24.26965188 43.09752658 24.29820633 47.72068691 C24.31692965 51.28712284 24.32204367 54.85348865 24.32357025 58.41996956 C24.32658071 60.12265703 24.3345544 61.82534375 24.34775543 63.52798271 C24.44505739 77.05501029 23.10465854 87.75271876 15 99 C8.33154233 105.66845767 0.03518548 108.11519826 -9.1875 108.25 C-20.59915316 108.1089571 -28.43673162 103.9975824 -38 98 C-37.09476787 93.7997229 -35.09717906 90.42033539 -32.9375 86.75 C-32.56044922 86.1003125 -32.18339844 85.450625 -31.79492188 84.78125 C-30.86765885 83.18494909 -29.93441544 81.59212471 -29 80 C-28.46632813 80.20496094 -27.93265625 80.40992188 -27.3828125 80.62109375 C-20.47884851 83.1175098 -13.34253407 84.93038037 -6 83.4375 C-2.79639126 82.30013956 -2.79639126 82.30013956 -1.83242798 79.38876343 C-0.91607433 75.65834373 -0.69311331 72.1577506 -0.68115234 68.34228516 C-0.66608391 67.22906387 -0.66608391 67.22906387 -0.65071106 66.09335327 C-0.62000512 63.65859702 -0.60287932 61.22395009 -0.5859375 58.7890625 C-0.56721569 57.09368965 -0.54764153 55.39832602 -0.5272522 53.70297241 C-0.47603192 49.25447028 -0.43635228 44.80593798 -0.39910889 40.3572998 C-0.35900573 35.81234331 -0.30794224 31.26751125 -0.2578125 26.72265625 C-0.16117293 17.81519171 -0.07673001 8.90765674 0 0 Z " fill="#E86A21" transform="translate(388,434)"/>
<path d="M0 0 C4.65981026 0.04483387 9.31927956 0.0597452 13.97927666 0.06923103 C17.6150986 0.0820412 21.25047484 0.11664583 24.8860817 0.15734482 C26.6076125 0.17277497 28.32923917 0.17993394 30.05083847 0.17844009 C32.42769004 0.17826142 34.80221594 0.20903185 37.17871094 0.24755859 C37.87767487 0.240504 38.57663879 0.2334494 39.29678345 0.22618103 C42.93124038 0.32027325 44.37670841 0.68922119 47.039505 3.2399292 C50.79447093 9.61161922 49.78073881 18.10096188 49.78857422 25.29003906 C49.79356682 26.90218796 49.79356682 26.90218796 49.79866028 28.54690552 C49.80370248 30.81105118 49.80606944 33.0752042 49.8059082 35.33935547 C49.80809417 38.78007386 49.82627768 42.22047103 49.84521484 45.66113281 C49.84814954 47.87076714 49.85013382 50.08040298 49.85107422 52.29003906 C49.85825974 53.30701874 49.86544525 54.32399841 49.87284851 55.37179565 C49.85261276 61.78106346 49.12506279 67.69149744 47.62060547 73.92285156 C47.29060547 73.92285156 46.96060547 73.92285156 46.62060547 73.92285156 C46.60514427 72.67044174 46.60514427 72.67044174 46.58937073 71.39273071 C46.49150571 63.53486183 46.38900708 55.67707014 46.28126621 47.81933022 C46.22603637 43.77932106 46.17261628 39.73930466 46.12329102 35.69921875 C46.07564834 31.80234751 46.02330558 27.90556547 45.96766472 24.00880051 C45.94724072 22.52003569 45.9285277 21.0312464 45.91153145 19.54243851 C45.88748836 17.46163313 45.85743388 15.38099682 45.82592773 13.30029297 C45.80261131 11.5215831 45.80261131 11.5215831 45.77882385 9.7069397 C45.80730898 6.96647091 45.80730898 6.96647091 44.62060547 4.92285156 C29.80878812 4.74561136 14.9968793 4.57993785 0.18477917 4.42807579 C-6.69256168 4.35729497 -13.56982227 4.28271365 -20.44702148 4.19921875 C-27.0799372 4.11870029 -33.7129094 4.04872862 -40.34601402 3.98527908 C-42.8806716 3.95929206 -45.41529505 3.92972983 -47.94986916 3.89658737 C-51.49121481 3.85088211 -55.03246704 3.81772143 -58.57397461 3.78759766 C-59.62917297 3.77105637 -60.68437134 3.75451508 -61.77154541 3.73747253 C-63.21655174 3.7289753 -63.21655174 3.7289753 -64.69075012 3.7203064 C-65.52865994 3.71108847 -66.36656977 3.70187054 -67.2298708 3.69237328 C-69.67710098 3.7870547 -69.67710098 3.7870547 -72.37939453 5.92285156 C-72.85479721 8.87977184 -72.85479721 8.87977184 -72.79931641 12.41357422 C-72.80778595 13.0806691 -72.81625549 13.74776398 -72.82498169 14.43507385 C-72.84847088 16.65254588 -72.8493695 18.86932666 -72.84814453 21.08691406 C-72.85525024 22.63756586 -72.86294984 24.18821504 -72.87121582 25.73886108 C-72.88469586 29.00241357 -72.88621874 32.26572427 -72.88037109 35.52929688 C-72.87453827 39.66688197 -72.90477801 43.80326771 -72.94548798 47.94062233 C-72.97166401 51.15306599 -72.97421453 54.36523467 -72.97059631 57.57777023 C-72.97226674 59.0996738 -72.98170394 60.62159306 -72.9997406 62.14339066 C-73.21201559 82.30695403 -66.59083759 100.23407759 -52.37939453 114.92285156 C-46.26492448 120.18339035 -39.85494669 124.83793081 -32.37939453 127.92285156 C-31.57373047 128.2928125 -30.76806641 128.66277344 -29.93798828 129.04394531 C-19.68676213 133.35632429 -9.84449445 133.40036883 0.43310547 129.29785156 C10.69970791 124.89303433 18.62909834 118.65573386 26.62060547 110.92285156 C27.33474609 110.23449219 28.04888672 109.54613281 28.78466797 108.83691406 C37.58161727 99.70031421 42.0807568 87.92755573 45.62060547 75.92285156 C45.95060547 75.92285156 46.28060547 75.92285156 46.62060547 75.92285156 C47.87062739 86.33970091 42.3648549 95.90618733 36.43310547 104.11035156 C25.52440144 117.81475361 10.52491265 131.64039525 -7.37939453 134.92285156 C-24.8640534 136.12131043 -38.75007168 130.31039627 -52.10986328 119.00097656 C-66.50287628 105.82183213 -74.94067797 88.42665089 -76.37939453 68.92285156 C-76.52868078 64.24038824 -76.54326543 59.56057655 -76.54736328 54.87597656 C-76.55058364 53.53318243 -76.55394827 52.19038864 -76.55744934 50.84759521 C-76.56339886 48.05056951 -76.56529325 45.25357454 -76.56469727 42.45654297 C-76.56459514 38.88009301 -76.57831737 35.30383934 -76.59546947 31.72743607 C-76.60659871 28.96157936 -76.6086163 26.19577029 -76.60808754 23.42989349 C-76.6098326 21.47288034 -76.62065392 19.51588204 -76.63163757 17.55889893 C-76.62856094 16.36705994 -76.62548431 15.17522095 -76.62231445 13.94726562 C-76.62445198 12.37915131 -76.62445198 12.37915131 -76.62663269 10.77935791 C-76.36380606 7.74274759 -75.78659308 5.62182134 -74.37939453 2.92285156 C-70.87479942 0.58645482 -69.31317318 0.62230235 -65.15625 0.50439453 C-63.85342072 0.46492706 -62.55059143 0.42545959 -61.20828247 0.38479614 C-59.76273319 0.35241817 -58.31716536 0.32085945 -56.87158203 0.29003906 C-56.13015835 0.27144711 -55.38873466 0.25285515 -54.6248436 0.2336998 C-36.41785985 -0.22257952 -18.2104269 -0.18077859 0 0 Z " fill="#EC630D" transform="translate(202.37939453125,432.0771484375)"/>
<path d="M0 0 C1.01344482 0.11754639 2.02688965 0.23509277 3.07104492 0.35620117 C4.02213135 0.4822876 4.97321777 0.60837402 5.953125 0.73828125 C6.80551758 0.84825439 7.65791016 0.95822754 8.53613281 1.0715332 C11.06160771 1.77419897 12.09195385 2.69723752 13.75 4.6875 C13.17894531 4.62691406 12.60789063 4.56632812 12.01953125 4.50390625 C-15.91617884 1.61706816 -42.72551507 0.58293431 -69.25 10.6875 C-70.32894531 11.079375 -71.40789062 11.47125 -72.51953125 11.875 C-88.90669111 18.19294115 -102.51713681 28.81788177 -115.25 40.6875 C-116.07628906 41.43644531 -116.90257812 42.18539062 -117.75390625 42.95703125 C-135.42395779 59.63158693 -147.78977985 84.95325639 -152.25 108.6875 C-152.43385254 109.65051025 -152.61770508 110.61352051 -152.80712891 111.60571289 C-154.27870617 120.09883454 -154.56261513 128.39254213 -154.5 137 C-154.49623352 137.68236725 -154.49246704 138.3647345 -154.48858643 139.06777954 C-154.28340092 170.79586494 -145.83961432 203.11747627 -123.2578125 226.57421875 C-121.25 228.6875 -121.25 228.6875 -119.1328125 231.3515625 C-117.35587174 233.75243161 -117.35587174 233.75243161 -115 235.375 C-114.4225 235.808125 -113.845 236.24125 -113.25 236.6875 C-113.25 237.3475 -113.25 238.0075 -113.25 238.6875 C-112.66863281 238.95433594 -112.08726563 239.22117187 -111.48828125 239.49609375 C-109.19626226 240.71610386 -107.42871027 242.08869439 -105.4375 243.75 C-96.87648152 250.52511065 -87.12020806 256.0545452 -77.25 260.6875 C-77.25 261.3475 -77.25 262.0075 -77.25 262.6875 C-81.9578867 262.09901416 -85.69021889 260.06471902 -89.75 257.75 C-90.45415039 257.34958496 -91.15830078 256.94916992 -91.88378906 256.53662109 C-98.82743953 252.49425663 -105.11151311 247.85664926 -111.25 242.6875 C-112.25675781 241.84574219 -113.26351562 241.00398437 -114.30078125 240.13671875 C-135.61371478 221.74652477 -149.13287211 196.96741881 -155.25 169.6875 C-155.46398437 168.76582031 -155.67796875 167.84414063 -155.8984375 166.89453125 C-162.9092385 131.68811752 -156.17548878 93.1574594 -137.25 62.6875 C-133.78898661 57.53490242 -130.05556634 52.58860817 -126.25 47.6875 C-125.52296875 46.72070312 -124.7959375 45.75390625 -124.046875 44.7578125 C-123.45390625 44.07460938 -122.8609375 43.39140625 -122.25 42.6875 C-121.59 42.6875 -120.93 42.6875 -120.25 42.6875 C-120.00378906 42.11 -119.75757813 41.5325 -119.50390625 40.9375 C-111.50114272 26.57740095 -89.73743098 16.08229747 -75.25 9.6875 C-74.16332031 9.20667969 -73.07664062 8.72585938 -71.95703125 8.23046875 C-49.14376045 -1.14989477 -24.27760082 -2.93630659 0 0 Z " fill="#EC640C" transform="translate(209.25,353.3125)"/>
<path d="M0 0 C5.54538225 4.50623006 10.56900277 10.16671709 13.375 16.8125 C13.5 20.0625 13.5 20.0625 13.375 22.8125 C11.375 21.8125 11.375 21.8125 10.125 18.25 C7.01260891 9.52279282 0.66125193 3.00313718 -7.4375 -1.375 C-19.07369902 -6.74666836 -35.7170324 -7.63747373 -47.875 -3.625 C-52.34380179 -1.64677246 -56.05378696 1.15118293 -59.75 4.32421875 C-61.625 5.8125 -61.625 5.8125 -64.625 6.8125 C-65.69092578 8.64122957 -65.69092578 8.64122957 -66.625 10.8125 C-67.58158745 12.27197913 -68.54007929 13.73021104 -69.5 15.1875 C-78.10665251 29.76396296 -79.07182506 48.17915872 -75.5 64.5625 C-73.45016673 71.20745713 -70.39419965 78.04823653 -65.43359375 83 C-63.625 84.8125 -63.625 84.8125 -63.625 86.8125 C-62.573125 87.18375 -62.573125 87.18375 -61.5 87.5625 C-58.625 88.8125 -58.625 88.8125 -56 90.6875 C-44.00508354 98.23985481 -29.0028293 99.4314238 -15.265625 96.59765625 C-5.90892673 93.81556105 2.73549027 87.13749055 8.2109375 79.0546875 C10.87946992 73.91462842 12.58465586 68.3054282 14.375 62.8125 C13.385 63.3075 13.385 63.3075 12.375 63.8125 C10.92651418 63.89592159 9.47429131 63.91982861 8.0234375 63.91015625 C6.74726562 63.90532227 6.74726562 63.90532227 5.4453125 63.90039062 C4.55585937 63.89201172 3.66640625 63.88363281 2.75 63.875 C1.8528125 63.87048828 0.955625 63.86597656 0.03125 63.86132812 C-2.18756648 63.84952591 -4.40625018 63.83306155 -6.625 63.8125 C-6.7593042 64.4305249 -6.8936084 65.0485498 -7.03198242 65.68530273 C-7.78593334 68.38977963 -9.06654022 69.79571065 -10.9375 71.875 C-11.53175781 72.54660156 -12.12601563 73.21820312 -12.73828125 73.91015625 C-14.60302338 75.79034138 -16.40044927 77.37495801 -18.625 78.8125 C-20.875 78.5 -20.875 78.5 -22.625 77.8125 C-21.635 77.1525 -20.645 76.4925 -19.625 75.8125 C-18.944375 75.27625 -18.26375 74.74 -17.5625 74.1875 C-15.625 72.8125 -15.625 72.8125 -13.625 72.8125 C-12.635 70.8325 -12.635 70.8325 -11.625 68.8125 C-10.305 66.1725 -8.985 63.5325 -7.625 60.8125 C0.295 60.8125 8.215 60.8125 16.375 60.8125 C17.82678429 63.71606857 16.85981423 65.19628168 15.875 68.25 C11.11391869 81.81826927 2.957726 91.48316729 -9.97265625 97.8046875 C-23.32772112 102.87921878 -38.54079953 102.49821195 -51.625 96.8125 C-63.55453792 91.06045461 -71.93072527 82.05408823 -76.84765625 69.75390625 C-82.65621682 53.07771623 -82.35728242 33.9214217 -74.625 17.8125 C-67.26992463 5.57155314 -57.13173281 -3.85111619 -43.25390625 -7.875 C-28.11484684 -11.36303929 -12.62679391 -9.22973768 0 0 Z " fill="#EC640D" transform="translate(655.625,441.1875)"/>
<path d="M0 0 C4.96772885 0.49378028 8.42413265 2.13520535 12.5 4.875 C13.10239502 5.27283691 13.70479004 5.67067383 14.32543945 6.08056641 C43.23278666 25.48715969 64.22444182 52.40223331 73.8125 86.125 C74.00739014 86.80401367 74.20228027 87.48302734 74.40307617 88.18261719 C77.5628161 100.01945694 78.36675063 111.98187335 78.3125 124.1875 C78.31001251 124.86286804 78.30752502 125.53823608 78.30496216 126.23406982 C78.09125118 163.92380552 64.65895242 194.77773919 38.375 221.6875 C37.59125 222.450625 36.8075 223.21375 36 224 C35.57332031 224.48339844 35.14664063 224.96679688 34.70703125 225.46484375 C24.54463711 236.56771653 2.87556803 252.35224174 -12.4375 253.1875 C-13.283125 253.125625 -14.12875 253.06375 -15 253 C-11.93903569 250.44677859 -9.14355804 249.24644814 -5.375 248 C8.17057419 242.9356637 20.19240297 234.49188957 31 225 C31.62777344 224.50371094 32.25554687 224.00742187 32.90234375 223.49609375 C38.44989349 219.08069702 42.64932005 213.5584174 47 208 C47.54188965 207.33403809 48.0837793 206.66807617 48.64208984 205.98193359 C52.89908604 200.6760954 56.40196032 195.23506303 59.625 189.25 C60.1001001 188.36876465 60.5752002 187.4875293 61.06469727 186.57958984 C70.0657749 169.6329153 74.45206372 151.22343126 75 132 C75.02578125 131.2275293 75.0515625 130.45505859 75.078125 129.65917969 C75.45958946 116.78952248 74.8818506 104.56694772 72 92 C71.8443457 91.31164062 71.68869141 90.62328125 71.52832031 89.9140625 C68.69737338 77.93480601 63.59884904 67.1759468 58.06567383 56.22558594 C56.93061679 53.85509798 55.9512424 51.44936162 55 49 C54.34 49 53.68 49 53 49 C52.46246094 47.99324219 51.92492187 46.98648438 51.37109375 45.94921875 C49.02197328 41.843167 46.16666403 38.36620589 43.0625 34.8125 C42.55009766 34.20986328 42.03769531 33.60722656 41.50976562 32.98632812 C38.57363423 29.58757882 35.58937443 26.73091053 32 24 C31.29875 23.2575 30.5975 22.515 29.875 21.75 C22.71878236 14.90492225 14.23089082 9.78705429 5.75 4.76171875 C3.48115197 3.30823798 1.77305869 2.00084747 0 0 Z " fill="#EC630C" transform="translate(249,367)"/>
<path d="M0 0 C17.12428727 -0.07008478 34.24852978 -0.12298554 51.37292767 -0.15543652 C59.32410667 -0.17090464 67.27519656 -0.19199306 75.22631836 -0.22631836 C82.15661533 -0.25622245 89.08684775 -0.2755754 96.01720744 -0.28226548 C99.68671554 -0.28617605 103.35603899 -0.29536513 107.0254879 -0.31719017 C111.12213707 -0.3413584 115.21846532 -0.34196935 119.31518555 -0.34057617 C121.13966721 -0.35675491 121.13966721 -0.35675491 123.00100708 -0.3732605 C124.11854874 -0.36913651 125.23609039 -0.36501251 126.38749695 -0.36076355 C127.35630137 -0.36352893 128.3251058 -0.36629431 129.32326794 -0.36914349 C132.53398866 0.07364145 134.39192338 1.1018933 137 3 C140.02710859 7.55539753 140.44577327 11.68223699 140.43579102 17.01464844 C140.44586685 17.79615768 140.45594269 18.57766693 140.46632385 19.38285828 C140.49473579 21.9585112 140.50067959 24.5335752 140.50390625 27.109375 C140.51356157 28.91856111 140.52365508 30.72774492 140.53416443 32.53692627 C140.55211579 36.33310352 140.55768744 40.12907628 140.5559082 43.92529297 C140.55560559 48.73973107 140.59633178 53.55281917 140.64822483 58.36693954 C140.68196471 62.10959615 140.68765411 65.85194124 140.68607903 69.59473419 C140.68957144 71.36619917 140.70256598 73.13767654 140.72607613 74.90898895 C140.93855679 92.59141032 136.65671355 107.15251065 127 122 C126.57074219 122.78117188 126.14148438 123.56234375 125.69921875 124.3671875 C114.18702456 142.20447229 95.31777987 154.6387455 75 160 C69.70079226 160.95210352 64.55216426 161.18284721 59.1875 161.1875 C58.42501953 161.19974609 57.66253906 161.21199219 56.87695312 161.22460938 C54.91654546 161.2298094 52.95655617 161.1229359 51 161 C50.01 160.01 50.01 160.01 49 159 C49.61294922 158.96559814 50.22589844 158.93119629 50.85742188 158.89575195 C63.88676672 158.11004445 75.83060143 156.85416233 88 152 C89.56041016 151.38705078 89.56041016 151.38705078 91.15234375 150.76171875 C110.540474 142.12495639 124.8270685 123.80866052 132.8125 104.625 C137.03463696 92.75750859 137.29818972 80.54018681 137.23046875 68.07421875 C137.22927197 66.59121237 137.22882484 65.10820521 137.2290802 63.62519836 C137.22753134 60.54524868 137.21936302 57.46541786 137.20581055 54.38549805 C137.18874797 50.46100307 137.1849994 46.53663693 137.18575573 42.61210918 C137.18548252 39.56043801 137.17997832 36.50879431 137.17275429 33.45713234 C137.16960075 32.01041686 137.16760809 30.56369832 137.16686058 29.1169796 C138.08253674 16.64513419 138.08253674 16.64513419 134.64518738 5.32914734 C132.92444338 3.78025657 132.92444338 3.78025657 130 3 C130 2.34 130 1.68 130 1 C87.1 1 44.2 1 0 1 C0 0.67 0 0.34 0 0 Z " fill="#ED6108" transform="translate(128,420)"/>
<path d="M0 0 C0.33 11.55 0.66 23.1 1 35 C3.97 33.02 6.94 31.04 10 29 C18.63697749 25.66642974 26.60542067 26.47106856 35 30 C44.00677023 34.98246864 49.04626557 43.34526102 52.24609375 52.91796875 C55.44829422 66.00882974 54.73210256 80.1523853 48 92 C42.97746392 100.11677705 36.48779658 105.86824816 27.21484375 108.53125 C20.10944712 110.03503765 13.60493353 108.88293516 7 106 C2.55422289 103.10275199 -0.60967988 99.78064023 -3 95 C-1.68 95.33 -0.36 95.66 1 96 C1 96.99 1 97.98 1 99 C1.7734375 99.37125 1.7734375 99.37125 2.5625 99.75 C4.58320269 100.78625779 6.49297732 101.89493725 8.4375 103.0625 C11.32445076 104.70781728 13.64888059 105.67306152 17 106 C18.175625 106.12375 19.35125 106.2475 20.5625 106.375 C27.29862991 106.24742178 34.0504249 103.47468824 39.18359375 99.16796875 C48.60921205 88.89100429 50.61827163 77.09965152 50.30859375 63.62109375 C49.83889579 54.20179821 47.44306582 45.05399 41.09375 37.84375 C33.99603306 31.59352165 26.43028263 30.27055627 17.171875 30.64453125 C11.58227785 31.27095162 8.02952211 33.03120927 3.75 36.6875 C1 39 1 39 -2 39 C-3.18975795 35.43072615 -3.12478155 32.20053028 -3.09765625 28.48828125 C-3.0962413 27.76005661 -3.09482635 27.03183197 -3.09336853 26.28153992 C-3.08777659 23.95848461 -3.07522562 21.63552612 -3.0625 19.3125 C-3.05748396 17.73632952 -3.05292123 16.16015752 -3.04882812 14.58398438 C-3.03866121 10.72258905 -3.01908436 6.86140275 -3 3 C-8.61 3 -14.22 3 -20 3 C-20.33 9.6 -20.66 16.2 -21 23 C-21.33 23 -21.66 23 -22 23 C-22 15.74 -22 8.48 -22 1 C-17.3903125 0.7525 -17.3903125 0.7525 -12.6875 0.5 C-11.72287842 0.44779297 -10.75825684 0.39558594 -9.7644043 0.34179688 C-9.00039307 0.30119141 -8.23638184 0.26058594 -7.44921875 0.21875 C-6.66893311 0.17685547 -5.88864746 0.13496094 -5.0847168 0.09179688 C-3.39117604 0.01722476 -1.69518179 0 0 0 Z " fill="#EC640E" transform="translate(519,433)"/>
<path d="M0 0 C0 0.33 0 0.66 0 1 C-1.26714844 1.02578125 -2.53429687 1.0515625 -3.83984375 1.078125 C-16.11591819 1.44122874 -24.90522327 2.3548093 -34.2109375 11.01171875 C-41.45547735 19.062965 -43.34478756 28.40818164 -43.25 38.9375 C-43.25773438 39.79279297 -43.26546875 40.64808594 -43.2734375 41.52929688 C-43.24323697 51.42752133 -41.10133069 60.7591798 -34 68.0546875 C-25.41203968 75.66387293 -17.45930168 77.53710042 -6.02734375 77.31640625 C1.66430079 76.51250534 8.68032193 73.6908184 14 68 C16.81425238 63.85827008 19.41199971 59.76400088 21 55 C16.38 55 11.76 55 7 55 C6.34 56.32 5.68 57.64 5 59 C2.625 60.8125 2.625 60.8125 0 62 C-2.3125 61.6875 -2.3125 61.6875 -4 61 C-3.01 60.67 -2.02 60.34 -1 60 C-0.505 59.01 -0.505 59.01 0 58 C4.53488372 53.23255814 4.53488372 53.23255814 7 52 C9.88370333 51.92805131 12.74239664 51.90708292 15.625 51.9375 C16.42679688 51.94201172 17.22859375 51.94652344 18.0546875 51.95117188 C20.03649006 51.96296832 22.01825433 51.98090395 24 52 C24.42651065 58.93384453 20.60599945 63.65982938 16.8125 69.1875 C9.58237843 76.41762157 0.96692244 80.28043853 -9.25 80.3125 C-20.77115926 80.12066875 -28.40267695 77.36824933 -36.6875 69.37109375 C-44.93670359 60.48257688 -47.517714 48.7185456 -47.25 36.85546875 C-46.27872152 25.76164741 -42.49089793 14.31476738 -34.15625 6.6015625 C-23.67579561 -1.18283297 -12.49688268 -4.08061475 0 0 Z " fill="#EC640E" transform="translate(801,462)"/>
<path d="M0 0 C11.58460516 11.90639975 12.25 23.84649636 12.25 40.3125 C-4.25 40.6425 -20.75 40.9725 -37.75 41.3125 C-35.65891041 49.15993504 -35.65891041 49.15993504 -30.77734375 54.3828125 C-26.38704332 56.39609093 -21.51027841 56.79641804 -16.75 57.3125 C-18.75 59.3125 -18.75 59.3125 -21.9375 59.625 C-28.84224411 59.05903737 -33.27847107 56.55057675 -37.75 51.3125 C-39.75 47.3125 -39.75 47.3125 -39.75 38.3125 C-23.58 38.3125 -7.41 38.3125 9.25 38.3125 C9.2771134 20.98548314 9.2771134 20.98548314 1.7265625 5.703125 C-6.68184997 -2.21590897 -16.53171308 -3.25687455 -27.56640625 -3.00390625 C-34.24570633 -2.64573871 -39.98419105 -0.74439351 -44.75 4.0625 C-45.74 5.17625 -45.74 5.17625 -46.75 6.3125 C-47.41 6.3125 -48.07 6.3125 -48.75 6.3125 C-50.38542086 9.52220449 -51.89031997 12.78057572 -53.375 16.0625 C-53.82101562 17.04734375 -54.26703125 18.0321875 -54.7265625 19.046875 C-55.06429688 19.79453125 -55.40203125 20.5421875 -55.75 21.3125 C-56.08 21.3125 -56.41 21.3125 -56.75 21.3125 C-56.45578648 13.22162823 -53.48846834 7.87852976 -47.6328125 2.29296875 C-33.73122896 -9.13134299 -15.16266893 -9.30436502 0 0 Z " fill="#ED6611" transform="translate(478.75,466.6875)"/>
<path d="M0 0 C0.99 0.33 1.98 0.66 3 1 C2.34773437 1.46148437 1.69546875 1.92296875 1.0234375 2.3984375 C-7.80363416 8.98619304 -13.09350358 15.98549585 -15 27 C-16.23582026 40.15187385 -15.59983796 51.86367124 -7.75 62.875 C-2.72534465 68.87667167 3.24756578 72.62456812 11 74 C23.59574741 74.714976 33.77056487 73.85941268 44 66 C48.82429963 61.09305712 51.43629471 55.31065918 54 49 C48.06 49 42.12 49 36 49 C35.34 50.65 34.68 52.3 34 54 C32.125 56.3125 32.125 56.3125 30 58 C28.68 58 27.36 58 26 58 C26 57.34 26 56.68 26 56 C26.7425 55.5875 27.485 55.175 28.25 54.75 C31.24708241 53.18473259 31.24708241 53.18473259 32.46875 49.9140625 C35 47 35 47 37.38183594 46.51171875 C40.35780495 46.4087084 43.27597771 46.47780854 46.25 46.625 C47.796875 46.66560547 47.796875 46.66560547 49.375 46.70703125 C51.9187875 46.77769201 54.45833099 46.87627922 57 47 C56.54434096 48.42315427 56.08372949 49.84472338 55.62109375 51.265625 C55.36513428 52.05743164 55.1091748 52.84923828 54.84545898 53.66503906 C52.09950157 61.24873433 47.51855686 67.38789561 40.6875 71.6875 C39.78386719 72.26886719 38.88023437 72.85023438 37.94921875 73.44921875 C28.58246099 78.37452051 16.66530318 78.58873634 6.4765625 76.16015625 C-4.16199441 72.09890766 -11.13941573 65.48568626 -15.84765625 55.15625 C-20.34208121 42.84609622 -20.25909004 29.50117215 -15.25 17.375 C-11.67854299 9.91579459 -7.17832405 4.19864237 0 0 Z " fill="#EC630D" transform="translate(848,465)"/>
<path d="M0 0 C3.81248426 -0.02887236 7.6249407 -0.04675492 11.4375 -0.0625 C12.52611328 -0.07087891 13.61472656 -0.07925781 14.73632812 -0.08789062 C15.77080078 -0.09111328 16.80527344 -0.09433594 17.87109375 -0.09765625 C18.82943115 -0.10289307 19.78776855 -0.10812988 20.77514648 -0.11352539 C23 0 23 0 24 1 C24.11093004 3.39671078 24.15738289 5.76487999 24.16113281 8.16259766 C24.16609772 8.91227814 24.17106262 9.66195862 24.17617798 10.43435669 C24.19084375 12.92760116 24.19761101 15.42078188 24.203125 17.9140625 C24.20887548 19.64464317 24.21463323 21.37522382 24.22039795 23.10580444 C24.2309223 26.74257708 24.23675469 30.37932754 24.24023438 34.01611328 C24.24570383 38.66656498 24.2696924 43.31672161 24.29820633 47.96708107 C24.31687807 51.54626301 24.32204085 55.12537477 24.32357025 58.70460129 C24.32659012 60.41814146 24.33459614 62.13168058 24.34775543 63.84517288 C24.36490122 66.2506841 24.3629145 68.65548682 24.35644531 71.06103516 C24.3656601 71.76365479 24.37487488 72.46627441 24.3843689 73.19018555 C24.3422998 78.20964543 23.17468045 81.57945517 21 86 C19.92731424 82.40436728 20.26507406 79.57383582 20.73556519 75.86282349 C21.31981797 69.53758749 21.12017327 63.15646145 21.09765625 56.80859375 C21.09578789 55.25204006 21.09436597 53.69548577 21.09336853 52.13893127 C21.08957622 48.07016333 21.07977453 44.00143189 21.06866455 39.93267822 C21.05837925 35.76957696 21.05385575 31.60646972 21.04882812 27.44335938 C21.03814886 19.29555442 21.02057921 11.14778597 21 3 C14.73 3 8.46 3 2 3 C2.02094727 5.24055176 2.04189453 7.48110352 2.06347656 9.78955078 C2.12982598 17.20145127 2.17396706 24.61336504 2.20724869 32.02548409 C2.22810237 36.51845159 2.25637917 41.0111142 2.30175781 45.50390625 C2.34529518 49.84166323 2.3691538 54.17912738 2.37950897 58.51708603 C2.38688623 60.17007938 2.40129247 61.82305713 2.42292023 63.47592545 C2.4520602 65.79566021 2.45595174 68.11419299 2.45410156 70.43408203 C2.46298401 71.75312531 2.47186646 73.07216858 2.48101807 74.43118286 C1.91883725 78.60217074 0.64634379 80.76534616 -2 84 C-4.25 84.875 -4.25 84.875 -6 85 C-5.67 84.01 -5.34 83.02 -5 82 C-4.34 82 -3.68 82 -3 82 C-1.20607476 77.38483894 -0.69651573 73.24309674 -0.68115234 68.34228516 C-0.67110672 67.60013763 -0.6610611 66.85799011 -0.65071106 66.09335327 C-0.62000512 63.65859702 -0.60287932 61.22395009 -0.5859375 58.7890625 C-0.56721569 57.09368965 -0.54764153 55.39832602 -0.5272522 53.70297241 C-0.47603192 49.25447028 -0.43635228 44.80593798 -0.39910889 40.3572998 C-0.35900573 35.81234331 -0.30794224 31.26751125 -0.2578125 26.72265625 C-0.16117293 17.81519171 -0.07673001 8.90765674 0 0 Z " fill="#EF6810" transform="translate(388,434)"/>
<path d="M0 0 C0.33 0 0.66 0 1 0 C1.00586624 0.96671631 1.01173248 1.93343262 1.01777649 2.92944336 C1.0753668 12.10748971 1.14831226 21.28530733 1.23571491 30.46311951 C1.28015537 35.1798222 1.3194669 39.89644373 1.34643555 44.61328125 C1.37273446 49.17816062 1.41331712 53.74272305 1.46318626 58.30740356 C1.47967749 60.03577689 1.49130079 61.7642048 1.49761391 63.49264526 C1.60978893 91.42074799 9.08743301 111.67348714 28.859375 131.90234375 C38.60821169 141.08874755 51.87480198 147.59020428 65 150 C65 150.66 65 151.32 65 152 C48.06271718 150.86300648 32.87447571 141.16277083 21.234375 129.14453125 C13.2425053 119.86562732 6.80705925 109.99892043 2.5625 98.5 C2.1917334 97.52317261 2.1917334 97.52317261 1.81347656 96.52661133 C-2.19421482 84.84513427 -1.15051372 71.60466133 -1.1328125 59.39453125 C-1.13348773 57.73638393 -1.13445957 56.07823671 -1.13571167 54.42008972 C-1.13717383 50.97528118 -1.13507923 47.53049883 -1.13037109 44.08569336 C-1.124625 39.66612872 -1.12799265 35.24662418 -1.13394356 30.82706165 C-1.1375474 27.41710451 -1.13641226 24.00716177 -1.13381577 20.59720421 C-1.13314855 18.96607137 -1.13396776 17.33493723 -1.13629532 15.70380592 C-1.13882423 13.43767406 -1.13498015 11.17164197 -1.12939453 8.90551758 C-1.12859894 7.61680252 -1.12780334 6.32808746 -1.12698364 5.00032043 C-1 2 -1 2 0 0 Z " fill="#EE6109" transform="translate(111,427)"/>
<path d="M0 0 C0.66 0 1.32 0 2 0 C3.07419152 10.68436922 3.10194194 21.27344291 3 32 C3.88558594 31.21109375 4.77117188 30.4221875 5.68359375 29.609375 C8.37152256 27.37193265 10.6402164 26.13946832 14.0625 25.25 C14.87847656 25.02828125 15.69445312 24.8065625 16.53515625 24.578125 C17.34855469 24.38734375 18.16195312 24.1965625 19 24 C19.81726563 23.78601563 20.63453125 23.57203125 21.4765625 23.3515625 C28.22353122 22.41158234 35.77078579 25.73545263 41.28125 29.484375 C46.94471684 34.47852303 49.85972144 41.74559018 50.4140625 49.16796875 C50.49564353 50.84063427 50.56508396 52.51391837 50.625 54.1875 C50.68192017 55.56156006 50.68192017 55.56156006 50.73999023 56.96337891 C51.27391514 71.96412631 51.08316214 86.99243293 51 102 C50.01 102 49.02 102 48 102 C47.99413376 101.33316193 47.98826752 100.66632385 47.98222351 99.97927856 C47.91800541 93.00284104 47.83351363 86.02685274 47.73754883 79.05078125 C47.70441196 76.45155786 47.67634551 73.85226447 47.65356445 71.25292969 C47.61981202 67.50425542 47.56748414 63.75621629 47.51171875 60.0078125 C47.50532883 58.85636749 47.4989389 57.70492249 47.49235535 56.51858521 C47.33388409 47.70893787 46.65425938 38.45854587 40 32 C32.76679166 26.93675416 24.51991274 27.21367945 16 28 C10.84839011 29.68043698 6.69069405 32.01732066 3 36 C2.01 35.67 1.02 35.34 0 35 C0 23.45 0 11.9 0 0 Z " fill="#EB630D" transform="translate(697,436)"/>
<path d="M0 0 C1.08462524 -0.00953201 2.16925049 -0.01906403 3.28674316 -0.02888489 C4.44830933 -0.02797348 5.60987549 -0.02706207 6.80664062 -0.02612305 C8.00848999 -0.03040817 9.21033936 -0.0346933 10.4486084 -0.03910828 C12.98705414 -0.04484563 15.52551633 -0.04535623 18.06396484 -0.04101562 C21.94852686 -0.03785349 25.83232886 -0.06133109 29.71679688 -0.08666992 C32.18424383 -0.08894273 34.65169283 -0.0896465 37.11914062 -0.08862305 C38.86148987 -0.10243767 38.86148987 -0.10243767 40.63903809 -0.11653137 C41.72366333 -0.11030258 42.80828857 -0.10407379 43.92578125 -0.09765625 C44.87666626 -0.09828568 45.82755127 -0.0989151 46.80725098 -0.0995636 C50.02843424 0.35435228 51.9096268 1.26913436 54.46289062 3.2746582 C54.77539062 6.9621582 54.77539062 6.9621582 54.46289062 10.2746582 C54.13289063 10.2746582 53.80289063 10.2746582 53.46289062 10.2746582 C53.21539062 9.3052832 52.96789062 8.3359082 52.71289062 7.3371582 C52.30039063 6.3265332 51.88789063 5.3159082 51.46289062 4.2746582 C48.58297215 3.17051357 45.78882255 3.14823302 42.72949219 3.14526367 C41.79461975 3.14211151 40.85974731 3.13895935 39.89654541 3.13571167 C38.89234558 3.1377359 37.88814575 3.13976013 36.85351562 3.1418457 C35.81273865 3.14088898 34.77196167 3.13993225 33.699646 3.13894653 C31.49735453 3.13826624 29.29506105 3.14011002 27.09277344 3.14428711 C23.73953682 3.14961586 20.38643546 3.14434816 17.03320312 3.13793945 C14.88997366 3.13860068 12.74674429 3.13988277 10.60351562 3.1418457 C9.60741272 3.13982147 8.61130981 3.13779724 7.58502197 3.13571167 C2.11752134 3.15390142 -3.12776122 3.46957195 -8.53710938 4.2746582 C-8.53710938 6.5846582 -8.53710938 8.8946582 -8.53710938 11.2746582 C3.01289063 11.2746582 14.56289062 11.2746582 26.46289062 11.2746582 C26.46289062 15.5646582 26.46289062 19.8546582 26.46289062 24.2746582 C15.24289063 24.2746582 4.02289063 24.2746582 -7.53710938 24.2746582 C-7.53710938 23.9446582 -7.53710938 23.6146582 -7.53710938 23.2746582 C3.35289062 23.2746582 14.24289063 23.2746582 25.46289062 23.2746582 C25.46289062 19.9746582 25.46289062 16.6746582 25.46289062 13.2746582 C24.80289063 13.6046582 24.14289063 13.9346582 23.46289062 14.2746582 C19.23490681 14.50944738 15.00301265 14.50306791 10.76928711 14.51489258 C8.66870151 14.52457381 6.56910488 14.55558505 4.46875 14.5871582 C3.12695892 14.59369106 1.78516086 14.59894042 0.44335938 14.6027832 C-1.38352417 14.61680176 -1.38352417 14.61680176 -3.24731445 14.63110352 C-6.81757952 14.2442696 -8.68787997 13.41821742 -11.53710938 11.2746582 C-12.83379054 8.68129587 -12.5850758 7.47611718 -11.91210938 4.6496582 C-9.30759264 0.15094748 -4.84129393 0.02345787 0 0 Z " fill="#ED610B" transform="translate(168.537109375,452.725341796875)"/>
<path d="M0 0 C4.44361442 1.89962424 6.5991868 5.48141616 8.3956604 9.86721802 C9.61073791 14.15536233 9.36200129 18.54242855 9.29296875 22.96484375 C9.28872391 23.99815323 9.28447906 25.03146271 9.28010559 26.09608459 C9.26339394 29.37682822 9.22575511 32.65694392 9.1875 35.9375 C9.17244348 38.16991297 9.15875677 40.40233562 9.14648438 42.63476562 C9.1135151 48.09005581 9.06339087 53.54498302 9 59 C8.34 59 7.68 59 7 59 C6.970271 57.10894531 6.970271 57.10894531 6.93994141 55.1796875 C6.86352478 50.47555508 6.7748643 45.77171751 6.68261719 41.06787109 C6.64447584 39.03700609 6.6095978 37.00607695 6.578125 34.97509766 C6.5321506 32.04566619 6.47421109 29.11667067 6.4140625 26.1875 C6.40251129 25.28821777 6.39096008 24.38893555 6.37905884 23.46240234 C6.18387029 13.89119724 6.18387029 13.89119724 2 5.5625 C-1.7981945 2.59516054 -5.30959454 2.49584893 -10 3 C-13.88336003 4.68841741 -15.38000381 6.16254674 -17 10 C-18.32413577 16.37162267 -18.08782009 22.96539052 -18 29.4375 C-17.9258053 39.34080595 -18.35197961 49.1176891 -19 59 C-25.27 59 -31.54 59 -38 59 C-38 58.67 -38 58.34 -38 58 C-30.08 57.505 -30.08 57.505 -22 57 C-21.98541748 55.63794434 -21.97083496 54.27588867 -21.95581055 52.87255859 C-21.89772695 47.80686527 -21.82049409 42.74161175 -21.73754883 37.67626953 C-21.7043469 35.48623812 -21.6763003 33.29612211 -21.65356445 31.10595703 C-21.61993191 27.9530847 -21.56761052 24.80098427 -21.51171875 21.6484375 C-21.50532883 20.67321136 -21.4989389 19.69798523 -21.49235535 18.69320679 C-21.34658239 11.91422641 -19.84740304 7.83268466 -16.125 2.125 C-11.08400354 -1.3028776 -5.89716985 -0.91239232 0 0 Z " fill="#EB610C" transform="translate(718,479)"/>
<path d="M0 0 C1.14555862 -0.00571014 2.29111725 -0.01142029 3.47138977 -0.01730347 C4.72916229 -0.01842133 5.98693481 -0.01953918 7.28282166 -0.02069092 C8.61990496 -0.02531979 9.95698694 -0.03034454 11.29406738 -0.03573608 C14.92613909 -0.04885083 18.55819233 -0.05530261 22.19028401 -0.05974674 C24.45789734 -0.06267746 26.7255056 -0.06678215 28.99311638 -0.07125092 C36.08377975 -0.08492009 43.17443158 -0.09459099 50.26510721 -0.09845281 C58.45891304 -0.10293977 66.65255257 -0.12051951 74.84630781 -0.1494534 C81.17586234 -0.17103163 87.50536994 -0.18115493 93.83496088 -0.18249393 C97.61777191 -0.18354425 101.4004265 -0.18950047 105.18319893 -0.20731354 C108.73810867 -0.22372895 112.29274322 -0.22598192 115.84767723 -0.21717453 C117.7795905 -0.21603077 119.71149439 -0.2297964 121.64335632 -0.243927 C122.78609512 -0.23835785 123.92883392 -0.2327887 125.10620117 -0.22705078 C126.1033719 -0.22851734 127.10054262 -0.2299839 128.12793064 -0.2314949 C128.90728442 -0.10875576 129.6866382 0.01398338 130.48960876 0.14044189 C131.47960876 1.62544189 131.47960876 1.62544189 132.48960876 3.14044189 C131.77692715 3.14375204 131.06424553 3.14706219 130.3299675 3.15047264 C112.99550952 3.23166355 95.66114374 3.32374313 78.32680893 3.42796898 C69.94408242 3.47810857 61.56136575 3.52455133 53.17857361 3.56231689 C45.87284355 3.59523951 38.5671896 3.6350722 31.26154351 3.68323195 C27.39261973 3.70849429 23.52374642 3.73027634 19.65476227 3.74378586 C16.01369875 3.75660866 12.37280834 3.77866532 8.73184013 3.80782509 C6.75739752 3.8212282 4.78289596 3.82482195 2.80841064 3.82814026 C1.63334457 3.83930374 0.4582785 3.85046722 -0.75239563 3.86196899 C-2.28441557 3.87026513 -2.28441557 3.87026513 -3.84738541 3.87872887 C-6.59482401 4.14873972 -8.22298266 4.61396159 -10.51039124 6.14044189 C-11.79293767 8.67814192 -11.79293767 8.67814192 -12.51039124 11.14044189 C-13.17039124 10.15044189 -13.83039124 9.16044189 -14.51039124 8.14044189 C-13.11454331 4.76714275 -11.58673513 3.09811528 -8.51039124 1.14044189 C-5.40566738 0.10553394 -3.25567416 0.00970834 0 0 Z " fill="#EB6714" transform="translate(125.51039123535156,418.85955810546875)"/>
<path d="M0 0 C0.91644287 0.00523682 1.83288574 0.01047363 2.77709961 0.01586914 C3.66792236 0.0183667 4.55874512 0.02086426 5.4765625 0.0234375 C7.18573853 0.03709351 7.18573853 0.03709351 8.92944336 0.05102539 C14.34350586 0.08196289 14.34350586 0.08196289 19.86694336 0.11352539 C19.86694336 7.37352539 19.86694336 14.63352539 19.86694336 22.11352539 C17.33726568 18.31900887 17.64334244 15.30155042 17.74194336 10.92602539 C17.78319336 8.34790039 17.82444336 5.76977539 17.86694336 3.11352539 C11.92694336 3.11352539 5.98694336 3.11352539 -0.13305664 3.11352539 C-0.13305664 33.14352539 -0.13305664 63.17352539 -0.13305664 94.11352539 C-0.79305664 94.11352539 -1.45305664 94.11352539 -2.13305664 94.11352539 C-3.10141949 83.22072022 -3.28089203 72.42679782 -3.26586914 61.50024414 C-3.26654436 59.75144945 -3.26751619 58.00265485 -3.26876831 56.25386047 C-3.27022998 52.62251882 -3.26813713 48.99120202 -3.26342773 45.35986328 C-3.25767564 40.6969723 -3.26105328 36.03413819 -3.2670002 31.3712492 C-3.27060033 27.77604232 -3.26947073 24.18084913 -3.26687241 20.58564186 C-3.26620446 18.86436773 -3.26702694 17.14309237 -3.26935196 15.42181969 C-3.2718754 13.03345767 -3.26804489 10.64519081 -3.26245117 8.25683594 C-3.2644754 7.5437175 -3.26649963 6.83059906 -3.26858521 6.09587097 C-3.24272416 0.17258404 -3.24272416 0.17258404 0 0 Z " fill="#EB620D" transform="translate(910.133056640625,433.886474609375)"/>
<path d="M0 0 C6.01752223 0.30087611 9.81170231 2.89530107 14 7 C22.92368847 18.28996991 23 29.74396531 23 44 C6.5 44 -10 44 -27 44 C-25.52778571 51.86501294 -25.52778571 51.86501294 -21.0625 57.625 C-16.54814389 59.65185376 -11.87186623 60.27476597 -7 61 C-7 61.33 -7 61.66 -7 62 C-17.08044422 63.05844664 -17.08044422 63.05844664 -21.5078125 60.6171875 C-25.03736096 57.60860561 -28.08815542 54.67320346 -29 50 C-29 47.36 -29 44.72 -29 42 C-12.5 42 4 42 21 42 C19.17800582 21.59902931 19.17800582 21.59902931 8.0390625 6.44140625 C5.44563006 4.6081178 2.92053021 3.24122534 0 2 C0 1.34 0 0.68 0 0 Z " fill="#ED640F" transform="translate(803,463)"/>
<path d="M0 0 C0.99 0.66 1.98 1.32 3 2 C1.78763672 2.12955078 1.78763672 2.12955078 0.55078125 2.26171875 C-6.25019239 3.0957197 -6.25019239 3.0957197 -12.125 6.375 C-17.48522317 13.87931244 -17.76793033 23.03808946 -16.51171875 32.02734375 C-15.31522573 36.63977869 -12.87105883 39.41929411 -9 42 C-3.66457396 43.04959201 -0.04380446 43.40727031 5 41 C9.50184376 37.78439731 10.87060115 33.22142366 12 28 C12.85344158 20.64194962 11.98508005 13.30882091 7.6875 7.10546875 C6.51744277 5.68610956 5.26602779 4.33446172 4 3 C7 3 7 3 8.53515625 4.3203125 C14.91245879 11.85564184 15.60211486 18.27648554 15 28 C14.29444947 33.87296286 12.19378996 38.80621004 8 43 C2.82166916 46.02883502 -1.16428565 46.55578232 -7 46 C-11.91281747 44.11045482 -15.66641982 41.91327172 -17.91015625 37.01171875 C-20.91156205 28.48214227 -21.77009981 18.46076311 -18.375 9.9375 C-14.46461471 2.43793964 -8.44780731 -0.98697155 0 0 Z " fill="#EC630D" transform="translate(536,478)"/>
<path d="M0 0 C0.33 0 0.66 0 1 0 C0.97679687 1.00417969 0.95359375 2.00835937 0.9296875 3.04296875 C0.57800836 20.79134484 0.57800836 20.79134484 7 37 C7.66 38.03125 8.32 39.0625 9 40.125 C14.81008089 46.73147827 24.17118392 49.55162953 32.640625 50.203125 C41.18952982 50.35669814 49.32887231 49.08269509 56.26171875 43.73828125 C60.05590513 39.94409487 63.00940941 35.43539539 66 31 C67 34 67 34 66.06640625 36.05078125 C60.38655688 44.59268458 53.1724768 50.63088369 43 53 C31.90541902 54.00347328 21.56887672 53.535756 12.25 46.875 C4.34898871 40.25825203 -0.66134385 31.19530082 -2 21 C-2.15745738 18.12352255 -2.18499971 15.25533897 -2.1875 12.375 C-2.19974609 11.62476563 -2.21199219 10.87453125 -2.22460938 10.1015625 C-2.23484653 6.25239227 -2.18079278 3.25825956 0 0 Z " fill="#EB620D" transform="translate(421,489)"/>
<path d="M0 0 C2.86688248 0.09096556 5.70300515 0.23767988 8.5625 0.4375 C9.36880859 0.48970703 10.17511719 0.54191406 11.00585938 0.59570312 C13.00421738 0.72577376 15.00215386 0.86229056 17 1 C16.34 1.66 15.68 2.32 15 3 C10.71 3 6.42 3 2 3 C2 33.03 2 63.06 2 94 C1.34 94 0.68 94 0 94 C-0.81844172 82.23590657 -1.14986412 70.54068264 -1.1328125 58.75 C-1.13348834 57.07275376 -1.13446069 55.39550762 -1.13571167 53.71826172 C-1.13716895 50.24608403 -1.13509415 46.77393243 -1.13037109 43.30175781 C-1.12460306 38.84409577 -1.12800914 34.38649301 -1.13394356 29.92883301 C-1.13754227 26.485469 -1.13641502 23.0421193 -1.13381577 19.59875488 C-1.13314824 17.9528401 -1.13396884 16.30692402 -1.13629532 14.66101074 C-1.13881809 12.38074226 -1.13498995 10.10057349 -1.12939453 7.8203125 C-1.12859894 6.52367676 -1.12780334 5.22704102 -1.12698364 3.89111328 C-1 1 -1 1 0 0 Z " fill="#ED620C" transform="translate(677,434)"/>
<path d="M0 0 C0.29390625 0.64582031 0.5878125 1.29164063 0.890625 1.95703125 C4.1977679 8.903932 7.92985402 15.58515296 11.875 22.1875 C12.35614258 23.03739502 12.83728516 23.88729004 13.33300781 24.76293945 C15.86878544 29.10067452 15.86878544 29.10067452 19.93652344 31.76586914 C22.00584791 32.05090893 23.91482233 32.08733324 26 32 C27.1240625 32.03222656 28.248125 32.06445312 29.40625 32.09765625 C30.4271875 32.08605469 31.448125 32.07445312 32.5 32.0625 C33.5415625 32.05347656 34.583125 32.04445313 35.65625 32.03515625 C36.4296875 32.02355469 37.203125 32.01195312 38 32 C37.57847656 31.24074219 37.15695312 30.48148438 36.72265625 29.69921875 C35.90087891 28.20841797 35.90087891 28.20841797 35.0625 26.6875 C34.51722656 25.70136719 33.97195313 24.71523438 33.41015625 23.69921875 C32 21 32 21 31 18 C35.34820864 19.48857593 37.0408022 22.72799932 39.25 26.5 C39.61351562 27.09425781 39.97703125 27.68851563 40.3515625 28.30078125 C43 32.71152491 43 32.71152491 43 35 C38.79285562 35.26221814 34.58781109 35.42147604 30.375 35.5625 C28.59029297 35.67561523 28.59029297 35.67561523 26.76953125 35.79101562 C18.14581456 36.00781297 18.14581456 36.00781297 14.97900391 33.22241211 C13.40195364 30.88481099 12.18609061 28.55600244 11 26 C10.23274051 24.67951595 9.45489084 23.36509893 8.6640625 22.05859375 C7.98095745 20.85349333 7.30119359 19.64649204 6.625 18.4375 C6.27050781 17.81037109 5.91601562 17.18324219 5.55078125 16.53710938 C4.69744473 15.0264731 3.84824846 13.51349916 3 12 C2.34 12 1.68 12 1 12 C0.896875 11.236875 0.79375 10.47375 0.6875 9.6875 C-0.04364039 6.82940576 -0.76951913 5.84257115 -3 4 C-7.24571062 8.30515056 -7.63694938 11.56233433 -7.75 17.3125 C-7.77964844 18.05306641 -7.80929687 18.79363281 -7.83984375 19.55664062 C-7.91005845 21.37052046 -7.95735048 23.18526278 -8 25 C-8.66 25 -9.32 25 -10 25 C-11.20509672 8.16690293 -11.20509672 8.16690293 -6.6875 2.9375 C-4.15955398 0.51554752 -3.58427324 0 0 0 Z " fill="#E9630F" transform="translate(938,504)"/>
<path d="M0 0 C-0.99 0.08636719 -1.98 0.17273438 -3 0.26171875 C-12.11133143 1.1810416 -18.47690256 2.72818575 -25.25 9.125 C-31.83857737 19.94909139 -33.17423307 31.95721254 -30.9375 44.3125 C-29.2421842 51.11667288 -26.88556497 56.90396764 -21.2890625 61.36328125 C-15.44680949 64.75277403 -8.59724262 65.23568531 -2 66 C-2.33 66.66 -2.66 67.32 -3 68 C-11.20343622 68.39063982 -18.10438735 67.55339947 -24.75 62.375 C-32.86523299 54.69283049 -34.86690101 44.83944787 -35.25 34 C-34.85374632 22.76504272 -32.43398356 12.51642498 -24.6875 4.0625 C-18.25358088 -1.81677092 -7.73051284 -5.15367523 0 0 Z " fill="#EB620C" transform="translate(633,454)"/>
<path d="M0 0 C0.33 0 0.66 0 1 0 C1 22.44 1 44.88 1 68 C12.4715658 68.68516016 12.4715658 68.68516016 17 67 C18.20882096 64.99983534 18.20882096 64.99983534 19 63 C19.38063221 65.3260857 19.71269945 67.66055264 20 70 C19 71 19 71 17.05053711 71.11352539 C16.2178833 71.10828857 15.38522949 71.10305176 14.52734375 71.09765625 C13.62822266 71.09443359 12.72910156 71.09121094 11.80273438 71.08789062 C10.38444336 71.07532227 10.38444336 71.07532227 8.9375 71.0625 C7.98810547 71.05798828 7.03871094 71.05347656 6.06054688 71.04882812 C3.70696935 71.0370011 1.35351523 71.02052025 -1 71 C-2.30625446 48.67704437 -2.09945432 26.35121169 -2 4 C-1.34 4 -0.68 4 0 4 C0 2.68 0 1.36 0 0 Z " fill="#EC6310" transform="translate(498,468)"/>
<path d="M0 0 C0.33 0 0.66 0 1 0 C1 2.31 1 4.62 1 7 C1.66 7 2.32 7 3 7 C4.03407493 8.78174427 5.00066199 10.60276346 5.9375 12.4375 C11.15546591 21.63674135 20.03561164 29.17176991 30 33 C33.55391926 33.79048572 36.56912818 33.82984464 39.83203125 31.9375 C41.73083783 30.5075464 41.73083783 30.5075464 44 28 C44 27.34 44 26.68 44 26 C43.34 26 42.68 26 42 26 C42 25.34 42 24.68 42 24 C37.05 23.01 37.05 23.01 32 22 C32 21.34 32 20.68 32 20 C34.45898655 19.91923037 36.91533742 19.85962857 39.375 19.8125 C40.07367188 19.78736328 40.77234375 19.76222656 41.4921875 19.73632812 C43.5234375 19.70703125 43.5234375 19.70703125 47 20 C49 23 49 23 48.9375 25.375 C47.17943004 30.29759588 43.49216455 32.9055893 39.0625 35.375 C35.25554276 37.11512038 33.0632764 37.40970814 29 36 C19.63944027 31.8540828 11.16806061 25.1397085 5 17 C4.29875 16.113125 3.5975 15.22625 2.875 14.3125 C0.47272924 10.06848832 -0.53441153 5.84759764 -1 1 C-0.67 0.67 -0.34 0.34 0 0 Z " fill="#EC640E" transform="translate(158,501)"/>
<path d="M0 0 C9.82154121 1.70373674 9.82154121 1.70373674 14.01049805 2.75683594 C23.30299564 5.05914986 32.13887036 5.4952244 41.67504883 5.44604492 C44.1676808 5.43756741 46.65798486 5.46636063 49.15039062 5.49804688 C60.20830394 5.54443839 70.39272868 4.07388467 81.12539673 1.45046997 C83.4050713 0.90266076 85.69673865 0.4371759 88 0 C87.67 0.99 87.34 1.98 87 3 C84.58518448 3.88125086 82.37098708 4.5117489 79.875 5.0625 C78.75013184 5.31519653 78.75013184 5.31519653 77.60253906 5.57299805 C54.31459162 10.45968803 21.59791087 13.13365779 0 1 C0 0.67 0 0.34 0 0 Z " fill="#EB630D" transform="translate(144,620)"/>
<path d="M0 0 C10.45587373 -1.68818795 21.41156305 0.98170868 30 7 C35.45224686 11.32085176 39.11585486 16.25354481 41 23 C41.495 27.455 41.495 27.455 42 32 C31.605 32.495 31.605 32.495 21 33 C21.33 31.68 21.66 30.36 22 29 C27.94 29.33 33.88 29.66 40 30 C37.68352609 20.32531485 33.44081988 12.42162876 24.84765625 6.92578125 C16.78794368 2.88740518 6.82098072 3.41128499 -2 3 C-1.34 2.01 -0.68 1.02 0 0 Z " fill="#EC650F" transform="translate(862,460)"/>
<path d="M0 0 C0 0.66 0 1.32 0 2 C0.8971875 2.4021875 0.8971875 2.4021875 1.8125 2.8125 C4.01819033 4.00987475 5.43583187 5.04478984 7 7 C7 7.99 7 8.98 7 10 C3.2897134 8.7632378 2.39983766 6.99979707 0 4 C-5.53142815 2.15619062 -10.97100517 2.17337248 -16.375 4.375 C-21.76829422 9.76829422 -23.23460367 16.00697705 -23.5 23.5 C-23.27257443 29.51967057 -22.45720803 34.95014558 -19 40 C-14.33283014 43.88242448 -8.88673501 44.57951893 -3 45 C-3 45.66 -3 46.32 -3 47 C-4.89666526 46.91227545 -6.79238993 46.80408699 -8.6875 46.6875 C-10.27111328 46.60048828 -10.27111328 46.60048828 -11.88671875 46.51171875 C-16.23756476 45.79658597 -18.92836388 44.46944044 -21.546875 40.87890625 C-22.14242187 39.73228516 -22.14242187 39.73228516 -22.75 38.5625 C-23.15734375 37.80066406 -23.5646875 37.03882813 -23.984375 36.25390625 C-26.65820965 30.32005013 -26.16039153 24.39877771 -26 18 C-25.979375 16.783125 -25.95875 15.56625 -25.9375 14.3125 C-24.32537363 8.61632015 -21.00660136 3.78209462 -15.8515625 0.7265625 C-10.34257019 -1.38038543 -5.74159171 -1.00250014 0 0 Z " fill="#EC620C" transform="translate(876,478)"/>
<path d="M0 0 C4.64848304 2.71161511 7.84562714 6.07801932 9.25 11.3125 C9.4375 14.5625 9.4375 14.5625 9.25 17.3125 C8.25 18.3125 8.25 18.3125 5.29077148 18.42602539 C3.99727783 18.42078857 2.70378418 18.41555176 1.37109375 18.41015625 C0.34110008 18.40803383 0.34110008 18.40803383 -0.70970154 18.40586853 C-2.91067801 18.40025479 -5.11155409 18.38770007 -7.3125 18.375 C-8.80143083 18.36998676 -10.29036324 18.36542355 -11.77929688 18.36132812 C-15.43623075 18.35028093 -19.09310558 18.33300713 -22.75 18.3125 C-24.24620608 13.82388176 -22.67736932 10.5143128 -20.75 6.3125 C-14.91917828 -0.71438771 -8.72647953 -2.18161988 0 0 Z M-16.75 4.3125 C-20.37280288 9.93963896 -20.37280288 9.93963896 -21.75 16.3125 C-12.18 16.3125 -2.61 16.3125 7.25 16.3125 C6.62867872 9.83346278 6.62867872 9.83346278 3.375 5.4375 C2.86195313 4.86257813 2.34890625 4.28765625 1.8203125 3.6953125 C-1.26719585 0.97646186 -4.72792504 1.01545962 -8.6953125 1.1171875 C-12.15666545 1.44621345 -13.95469119 2.2004889 -16.75 4.3125 Z " fill="#EB630D" transform="translate(462.75,476.6875)"/>
<path d="M0 0 C0.103125 0.639375 0.20625 1.27875 0.3125 1.9375 C0.539375 2.618125 0.76625 3.29875 1 4 C4.66956597 5.22318866 8.12321003 5.23116124 11.94921875 5.31640625 C12.72183548 5.33718735 13.49445221 5.35796844 14.29048157 5.37937927 C16.7560648 5.44471038 19.22175361 5.50368315 21.6875 5.5625 C23.36003691 5.60570087 25.03256319 5.64931566 26.70507812 5.69335938 C30.8032775 5.8003749 34.90158296 5.90168857 39 6 C36.82826161 11.83350357 33.72780192 15.30341732 28.25 18.3125 C21.31150953 21.25574383 13.3755362 20.30484421 6 20 C6 19.67 6 19.34 6 19 C6.81082031 18.97421875 7.62164062 18.9484375 8.45703125 18.921875 C19.25043548 18.36901145 27.33546338 16.89090189 35 9 C34.08186523 9.02094727 33.16373047 9.04189453 32.21777344 9.06347656 C28.80344572 9.13174583 25.38984557 9.18184385 21.97509766 9.21972656 C20.4987441 9.23981301 19.02246981 9.26708801 17.54638672 9.30175781 C15.42135038 9.35041184 13.29736766 9.37299673 11.171875 9.390625 C9.8940918 9.41157227 8.61630859 9.43251953 7.29980469 9.45410156 C4 9 4 9 1.56738281 7.14746094 C-0.32363655 4.55658768 -0.34865619 3.13790568 0 0 Z " fill="#ED630F" transform="translate(157,480)"/>
<path d="M0 0 C5.10691968 4.62054638 7.07498564 8.49982053 7.625 15.375 C4.40637488 13.22924992 4.22083495 12.88408923 3.1875 9.4375 C1.98354145 5.95799676 0.98770323 4.16143609 -2.375 2.375 C-7.83463825 0.55512058 -13.19138298 0.84346611 -18.375 3.375 C-19.68014736 5.59276622 -19.68014736 5.59276622 -20.375 8.375 C-21.36178459 10.71395289 -22.36049819 13.04793521 -23.375 15.375 C-22.4303186 15.32170532 -22.4303186 15.32170532 -21.46655273 15.26733398 C-18.58220847 15.10863809 -15.69741253 14.96049108 -12.8125 14.8125 C-11.82185547 14.75642578 -10.83121094 14.70035156 -9.81054688 14.64257812 C-4.52370769 14.37911438 0.44419184 14.18817563 5.625 15.375 C5.955 16.035 6.285 16.695 6.625 17.375 C-3.605 17.375 -13.835 17.375 -24.375 17.375 C-24.375 7.22184685 -24.375 7.22184685 -20.5625 3.375 C-19.50095703 2.26125 -19.50095703 2.26125 -18.41796875 1.125 C-13.36787255 -3.20089502 -5.701237 -2.74504004 0 0 Z " fill="#EB630C" transform="translate(799.375,477.625)"/>
<path d="M0 0 C0.495 1.485 0.495 1.485 1 3 C0.34 3.66 -0.32 4.32 -1 5 C-1.99 5 -2.98 5 -4 5 C-4 4.34 -4 3.68 -4 3 C-17.68321802 1.94529384 -17.68321802 1.94529384 -30.1796875 6.12890625 C-32.38845251 8.97279233 -34.16772299 11.9024875 -36 15 C-37.74129733 17.11024417 -39.61049086 19.08503725 -41.5 21.0625 C-44.61212327 24.28082484 -44.61212327 24.28082484 -47 28 C-50.875 27.125 -50.875 27.125 -52 26 C-52.04080783 24.00041636 -52.04254356 21.99954746 -52 20 C-51.01 19.67 -50.02 19.34 -49 19 C-49 20.98 -49 22.96 -49 25 C-48.21625 24.01 -47.4325 23.02 -46.625 22 C-45.75875 21.01 -44.8925 20.02 -44 19 C-43.34 19 -42.68 19 -42 19 C-41.76152344 18.443125 -41.52304687 17.88625 -41.27734375 17.3125 C-39.71113111 14.47703247 -37.76526991 12.37277022 -35.5625 10 C-32.38919649 6.6482989 -32.38919649 6.6482989 -29.76416016 2.88574219 C-28 1 -28 1 -25.08911133 0.45410156 C-23.35310669 0.42268066 -23.35310669 0.42268066 -21.58203125 0.390625 C-20.32841797 0.35839844 -19.07480469 0.32617188 -17.78320312 0.29296875 C-16.47287109 0.27878906 -15.16253906 0.26460938 -13.8125 0.25 C-12.47717464 0.22184019 -11.1418853 0.19191271 -9.80664062 0.16015625 C-6.53769851 0.08934884 -3.26947421 0.03670367 0 0 Z " fill="#EC630D" transform="translate(980,461)"/>
<path d="M0 0 C0.33 0.99 0.66 1.98 1 3 C0.18208984 3.89138672 0.18208984 3.89138672 -0.65234375 4.80078125 C-6.30802825 11.01720029 -11.93032507 17.29045136 -17 24 C-17.48597656 24.639375 -17.97195313 25.27875 -18.47265625 25.9375 C-19.28121314 28.19199209 -19.28121314 28.19199209 -17.65625 30.8828125 C-16.9446875 31.95273437 -16.233125 33.02265625 -15.5 34.125 C-14.74962636 35.28100755 -13.99963052 36.43726042 -13.25 37.59375 C-12.68152344 38.45226562 -12.68152344 38.45226562 -12.1015625 39.328125 C-10.51847162 41.73083031 -9.00148984 44.17064161 -7.5 46.625 C-7.0153125 47.40101563 -6.530625 48.17703125 -6.03125 48.9765625 C-5 51 -5 51 -5 54 C-5.66 54 -6.32 54 -7 54 C-7.59167969 52.9378125 -8.18335938 51.875625 -8.79296875 50.78125 C-14.9330175 38.68596124 -14.9330175 38.68596124 -23 28 C-20.48026012 23.3597748 -17.22495184 19.61985133 -13.75 15.6875 C-13.17096924 15.02613037 -12.59193848 14.36476074 -11.99536133 13.68334961 C-10.33341737 11.78608202 -8.66688294 9.89292751 -7 8 C-5.56201475 6.35459062 -4.12438551 4.70886984 -2.6875 3.0625 C-1.79206669 2.04131576 -0.89643451 1.02030546 0 0 Z " fill="#EB620C" transform="translate(974,467)"/>
<path d="M0 0 C2.3828125 -0.29296875 2.3828125 -0.29296875 5.125 -0.1875 C6.03507812 -0.16042969 6.94515625 -0.13335937 7.8828125 -0.10546875 C8.58148438 -0.07066406 9.28015625 -0.03585937 10 0 C10 0.66 10 1.32 10 2 C7.03 2 4.06 2 1 2 C0.34 3.32 -0.32 4.64 -1 6 C-8.68376315 14.58773529 -17.5061591 18.84373156 -28 23 C-27.37351563 23.40992188 -26.74703125 23.81984375 -26.1015625 24.2421875 C-25.28429687 24.78101563 -24.46703125 25.31984375 -23.625 25.875 C-22.81289062 26.40867187 -22.00078125 26.94234375 -21.1640625 27.4921875 C-19 29 -19 29 -17 31 C-23.09853407 30.87294721 -25.9274445 28.84575499 -30.3984375 24.7890625 C-32 23 -32 23 -33 20 C-31.89205078 19.77957031 -31.89205078 19.77957031 -30.76171875 19.5546875 C-17.8795513 16.70653358 -7.44686799 11.17030198 0 0 Z " fill="#ED640D" transform="translate(207,490)"/>
<path d="M0 0 C0.99 0 1.98 0 3 0 C3.8353125 0.86625 3.8353125 0.86625 4.6875 1.75 C10.90971683 7.80404881 18.34446353 9.18074314 26.75 9.1875 C27.53632813 9.19974609 28.32265625 9.21199219 29.1328125 9.22460938 C34.9997713 9.23922804 39.93288348 8.53355826 45.25 5.875 C47 5 47 5 50 5 C50 5.66 50 6.32 50 7 C48.44148245 7.82011312 46.87798284 8.63076213 45.3125 9.4375 C44.00732422 10.11619141 44.00732422 10.11619141 42.67578125 10.80859375 C34.15955773 14.60048889 23.26805456 14.11721319 14.56640625 11.12109375 C9.47534156 8.89714312 4.43898538 6.35593397 0 3 C0 2.01 0 1.02 0 0 Z " fill="#EB6510" transform="translate(350,529)"/>
<path d="M0 0 C5.28 0 10.56 0 16 0 C15.67 0.66 15.34 1.32 15 2 C11.98509443 3.00496852 9.95818308 3.10335303 6.8125 3.0625 C5.224375 3.041875 3.63625 3.02125 2 3 C2 6.3 2 9.6 2 13 C2.90363281 12.97679687 3.80726563 12.95359375 4.73828125 12.9296875 C5.91777344 12.91164063 7.09726563 12.89359375 8.3125 12.875 C10.07013672 12.84019531 10.07013672 12.84019531 11.86328125 12.8046875 C15 13 15 13 18 15 C18.29296875 17.1640625 18.29296875 17.1640625 18.1875 19.625 C18.16042969 20.44226563 18.13335937 21.25953125 18.10546875 22.1015625 C18.07066406 22.72804688 18.03585938 23.35453125 18 24 C16.35 24.66 14.7 25.32 13 26 C13.350625 25.2575 13.70125 24.515 14.0625 23.75 C15.04877778 20.85691852 15.09422236 19.78529329 14 17 C12.88873341 15.66098208 12.88873341 15.66098208 10.05859375 15.90234375 C8.86363281 15.91394531 7.66867188 15.92554688 6.4375 15.9375 C3.2509375 15.9684375 3.2509375 15.9684375 0 16 C0 10.72 0 5.44 0 0 Z " fill="#EE6510" transform="translate(206,464)"/>
<path d="M0 0 C16.17 0 32.34 0 49 0 C49 0.33 49 0.66 49 1 C33.16 1 17.32 1 1 1 C3.51521031 9.92684147 3.51521031 9.92684147 9.0078125 16.140625 C13.42248389 18.04499305 18.25576161 18.485657 23 19 C21 21 21 21 17.8125 21.3125 C10.90775589 20.74653737 6.47152893 18.23807675 2 13 C0 9 0 9 0 0 Z " fill="#EB5F09" transform="translate(439,505)"/>
<path d="M0 0 C5.91705654 0.94672905 8.2722574 2.8819691 11.8359375 7.63671875 C13 10 13 10 14 17 C21.26 17 28.52 17 36 17 C35.505 14.03 35.505 14.03 35 11 C36.5 12.1875 36.5 12.1875 38 14 C38 15.65 38 17.3 38 19 C25.625 19.495 25.625 19.495 13 20 C11.29101562 15.5078125 11.29101562 15.5078125 9.58203125 11.015625 C7.82566341 7.66768434 6.06361131 6.15532911 3 4 C1.1875 2.3125 1.1875 2.3125 0 1 C0 0.67 0 0.34 0 0 Z " fill="#EB640E" transform="translate(634,454)"/>
<path d="M0 0 C0.33 0 0.66 0 1 0 C1.06945342 9.9876962 1.12278753 19.97533512 1.15543652 29.96322346 C1.17110494 34.6008131 1.19236458 39.23823775 1.22631836 43.87573242 C1.25887 48.34962273 1.27684415 52.82335417 1.28463173 57.29735374 C1.2901828 59.00583587 1.3010225 60.71430912 1.31719017 62.42272377 C1.33890904 64.81236312 1.34196931 67.20134258 1.34057617 69.59106445 C1.351362 70.30028549 1.36214783 71.00950653 1.3732605 71.74021912 C1.34279011 76.55766567 1.34279011 76.55766567 -0.52128601 78.96305847 C-1.00926163 79.30524918 -1.49723724 79.64743988 -2 80 C-1.93148331 79.24632645 -1.86296661 78.49265289 -1.79237366 77.71614075 C-1.04063798 68.83429846 -0.78949732 59.98184364 -0.68359375 51.07421875 C-0.66295855 49.5906373 -0.64196071 48.10706086 -0.62062073 46.62348938 C-0.56607645 42.76527017 -0.51637622 38.90700407 -0.46777344 35.04870605 C-0.41705633 31.09297639 -0.36163552 27.13731272 -0.30664062 23.18164062 C-0.19988975 15.45448336 -0.09826931 7.72727028 0 0 Z " fill="#EF5B01" transform="translate(410,440)"/>
<path d="M0 0 C1.74652084 0.02656305 3.49282081 0.07422855 5.23828125 0.140625 C6.13095703 0.15867187 7.02363281 0.17671875 7.94335938 0.1953125 C10.14691629 0.24244741 12.34830726 0.30821843 14.55078125 0.390625 C14.55078125 1.710625 14.55078125 3.030625 14.55078125 4.390625 C13.89078125 4.390625 13.23078125 4.390625 12.55078125 4.390625 C12.55078125 3.730625 12.55078125 3.070625 12.55078125 2.390625 C10.15132317 2.42382505 7.76090018 2.49114162 5.36328125 2.578125 C4.68974609 2.58392578 4.01621094 2.58972656 3.32226562 2.59570312 C-0.63563568 2.76946465 -2.26393382 3.22592729 -5.26171875 5.890625 C-5.98359375 6.715625 -6.70546875 7.540625 -7.44921875 8.390625 C-10.26171875 9.203125 -10.26171875 9.203125 -12.44921875 9.390625 C-12.44921875 8.730625 -12.44921875 8.070625 -12.44921875 7.390625 C-11.68609375 6.936875 -10.92296875 6.483125 -10.13671875 6.015625 C-7.35292062 4.65516068 -7.35292062 4.65516068 -6.38671875 2.3046875 C-4.02212615 -0.03130116 -3.2405318 0.08917402 0 0 Z " fill="#EC650E" transform="translate(475.44921875,514.609375)"/>
<path d="M0 0 C0.66 0 1.32 0 2 0 C3.31547495 11.09046577 2.72009071 21.88844641 2 33 C-0.24734928 29.40735167 -0.23200508 26.44857927 -0.1953125 22.265625 C-0.18886719 20.97011719 -0.18242188 19.67460937 -0.17578125 18.33984375 C-0.15907193 16.97655981 -0.14214206 15.61327856 -0.125 14.25 C-0.1149634 12.87110015 -0.10583873 11.49219335 -0.09765625 10.11328125 C-0.07408093 6.74201118 -0.0411727 3.37109364 0 0 Z " fill="#EA5E08" transform="translate(697,436)"/>
<path d="M0 0 C5.76036236 -0.34017888 10.02723982 0.72953264 15.375 2.8125 C16.45974609 3.20405273 16.45974609 3.20405273 17.56640625 3.60351562 C19.41689046 4.30656075 21.21472102 5.14481392 23 6 C23.33 6.99 23.66 7.98 24 9 C18.76957939 8.14287334 14.14271101 6.14178582 9.25390625 4.15625 C6.14699946 3.0522351 3.26113752 2.43285083 0 2 C0 1.34 0 0.68 0 0 Z " fill="#EC640C" transform="translate(224,358)"/>
<path d="M0 0 C3.875 1.75 3.875 1.75 5 4 C3.68 4 2.36 4 1 4 C0.49339844 4.95712891 0.49339844 4.95712891 -0.0234375 5.93359375 C-0.69246094 7.17302734 -0.69246094 7.17302734 -1.375 8.4375 C-1.81585938 9.26121094 -2.25671875 10.08492187 -2.7109375 10.93359375 C-4 13 -4 13 -6 14 C-5.41892368 10.2397015 -4.34800504 7.46964968 -2.4375 4.1875 C-1.98246094 3.39730469 -1.52742188 2.60710938 -1.05859375 1.79296875 C-0.53458984 0.90544922 -0.53458984 0.90544922 0 0 Z " fill="#EC640E" transform="translate(359,514)"/>
<path d="M0 0 C0.66 0.33 1.32 0.66 2 1 C2 3.97 2 6.94 2 10 C0.35 10.66 -1.3 11.32 -3 12 C-2.649375 11.2575 -2.29875 10.515 -1.9375 9.75 C-0.9416337 6.82879218 -0.93218942 5.81513699 -2 3 C-2.33 2.34 -2.66 1.68 -3 1 C-2.01 0.67 -1.02 0.34 0 0 Z " fill="#ED660F" transform="translate(222,478)"/>
<path d="M0 0 C1 4 1 4 0.00390625 6.140625 C-0.47175781 6.83671875 -0.94742187 7.5328125 -1.4375 8.25 C-1.91058594 8.95640625 -2.38367188 9.6628125 -2.87109375 10.390625 C-3.24363281 10.92171875 -3.61617188 11.4528125 -4 12 C-4.99 11.67 -5.98 11.34 -7 11 C-4.69 7.37 -2.38 3.74 0 0 Z " fill="#EB620B" transform="translate(407,521)"/>
<path d="M0 0 C0.33 1.32 0.66 2.64 1 4 C2.98 2.68 4.96 1.36 7 0 C6.43628586 3.26954202 5.50037734 4.82575883 3 7 C2.01 6.67 1.02 6.34 0 6 C0 4.02 0 2.04 0 0 Z " fill="#EC6814" transform="translate(697,465)"/>
<path d="M0 0 C2.59335905 2.59335905 2.27726563 4.48747032 2.36328125 8.02734375 C2 10 2 10 -1 13 C-0.67 8.71 -0.34 4.42 0 0 Z " fill="#EA610A" transform="translate(409,507)"/>
<path d="M0 0 C0.66 1.32 1.32 2.64 2 4 C0.1875 6.5 0.1875 6.5 -2 9 C-2.99 9 -3.98 9 -5 9 C-4.67 8.01 -4.34 7.02 -4 6 C-3.34 6 -2.68 6 -2 6 C-1.34 4.02 -0.68 2.04 0 0 Z " fill="#ED650E" transform="translate(387,510)"/>
<path d="M0 0 C3.91211733 1.15585285 6.8745041 2.35534962 10 5 C6.53058454 4.54177532 3.32604951 4.10868317 0 3 C0 2.01 0 1.02 0 0 Z " fill="#EC640C" transform="translate(133,615)"/>
<path d="M0 0 C1.2065625 0.0309375 1.2065625 0.0309375 2.4375 0.0625 C2.1075 0.7225 1.7775 1.3825 1.4375 2.0625 C-1.44461302 3.02320434 -3.26100044 3.16831883 -6.25 3.125 C-7.46236328 3.11146484 -7.46236328 3.11146484 -8.69921875 3.09765625 C-9.62154297 3.08025391 -9.62154297 3.08025391 -10.5625 3.0625 C-10.5625 2.7325 -10.5625 2.4025 -10.5625 2.0625 C-9.428125 1.918125 -8.29375 1.77375 -7.125 1.625 C-3.80350664 1.10055368 -3.09809271 0.07556324 0 0 Z " fill="#EE620A" transform="translate(219.5625,463.9375)"/>
<path d="M0 0 C2.6875 0.3125 2.6875 0.3125 5 1 C5 2.65 5 4.3 5 6 C4.67 4.68 4.34 3.36 4 2 C1.69 2.33 -0.62 2.66 -3 3 C-1.8125 1.4375 -1.8125 1.4375 0 0 Z " fill="#EC6916" transform="translate(695,434)"/>
<path d="M0 0 C1.98 0 3.96 0 6 0 C6 0.33 6 0.66 6 1 C4.02 1 2.04 1 0 1 C0 0.67 0 0.34 0 0 Z " fill="#ED7121" transform="translate(187,479)"/>
<path d="M0 0 C1.98 0 3.96 0 6 0 C6 0.33 6 0.66 6 1 C4.02 1 2.04 1 0 1 C0 0.67 0 0.34 0 0 Z " fill="#ED7220" transform="translate(179,479)"/>
<path d="M0 0 C3 1 3 1 3 1 Z " fill="#EF7323" transform="translate(453,479)"/>
<path d="M0 0 C3 1 3 1 3 1 Z " fill="#EE7321" transform="translate(175,479)"/>
<path d="M0 0 C3 1 3 1 3 1 Z " fill="#EE7121" transform="translate(163,479)"/>
<path d="" fill="#EF7121" transform="translate(0,0)"/>
<path d="M0 0 C3 1 3 1 3 1 Z " fill="#ED7022" transform="translate(131,423)"/>
<path d="M0 0 C2 1 2 1 2 1 Z " fill="#E87025" transform="translate(860,543)"/>
<path d="M0 0 C2 1 2 1 2 1 Z " fill="#EA7024" transform="translate(776,541)"/>
<path d="M0 0 C2 1 2 1 2 1 Z " fill="#EC7323" transform="translate(482,513)"/>
<path d="M0 0 C2 1 2 1 2 1 Z " fill="#E97122" transform="translate(652,500)"/>
<path d="" fill="#F07323" transform="translate(0,0)"/>
<path d="M0 0 C2 1 2 1 2 1 Z " fill="#EB7224" transform="translate(790,479)"/>
<path d="M0 0 C2 1 2 1 2 1 Z " fill="#EF7222" transform="translate(172,479)"/>
<path d="M0 0 C2 1 2 1 2 1 Z " fill="#EF7221" transform="translate(167,479)"/>
<path d="" fill="#ED7323" transform="translate(0,0)"/>
<path d="M0 0 C2 1 2 1 2 1 Z " fill="#EE7223" transform="translate(189,423)"/>
<path d="M0 0 C2 1 2 1 2 1 Z " fill="#EC7122" transform="translate(135,423)"/>
<path d="M0 0 C2 1 2 1 2 1 Z " fill="#EB7126" transform="translate(88,392)"/>
<path d="M0 0 C2 1 2 1 2 1 Z " fill="#E67225" transform="translate(136,360)"/>
<path d="" fill="#E77024" transform="translate(0,0)"/>
<path d="" fill="#EA7120" transform="translate(0,0)"/>
<path d="" fill="#E97224" transform="translate(0,0)"/>
<path d="" fill="#E97124" transform="translate(0,0)"/>
<path d="" fill="#EA7123" transform="translate(0,0)"/>
<path d="" fill="#EC7323" transform="translate(0,0)"/>
<path d="" fill="#EF7121" transform="translate(0,0)"/>
<path d="" fill="#EE7221" transform="translate(0,0)"/>
<path d="" fill="#E77023" transform="translate(0,0)"/>
<path d="" fill="#ED7120" transform="translate(0,0)"/>
<path d="" fill="#EB7023" transform="translate(0,0)"/>
<path d="" fill="#ED7222" transform="translate(0,0)"/>
<path d="" fill="#E67226" transform="translate(0,0)"/>
<path d="" fill="#E87023" transform="translate(0,0)"/>
<path d="" fill="#E96F24" transform="translate(0,0)"/>
<path d="" fill="#E66E22" transform="translate(0,0)"/>
<path d="" fill="#E86F24" transform="translate(0,0)"/>
<path d="" fill="#EB7223" transform="translate(0,0)"/>
<path d="" fill="#EA7326" transform="translate(0,0)"/>
<path d="" fill="#E96F23" transform="translate(0,0)"/>
<path d="" fill="#E97023" transform="translate(0,0)"/>
<path d="" fill="#EF6F1F" transform="translate(0,0)"/>
<path d="" fill="#E57226" transform="translate(0,0)"/>
<path d="" fill="#EE7123" transform="translate(0,0)"/>
<path d="" fill="#EC7024" transform="translate(0,0)"/>
<path d="" fill="#E97325" transform="translate(0,0)"/>
<path d="" fill="#E77126" transform="translate(0,0)"/>
<path d="" fill="#EB7024" transform="translate(0,0)"/>
<path d="" fill="#EC7122" transform="translate(0,0)"/>
<path d="" fill="#EC7025" transform="translate(0,0)"/>
<path d="" fill="#EA6F23" transform="translate(0,0)"/>
<path d="" fill="#F07323" transform="translate(0,0)"/>
<path d="" fill="#EE7224" transform="translate(0,0)"/>
<path d="" fill="#EB7022" transform="translate(0,0)"/>
<path d="" fill="#EB7122" transform="translate(0,0)"/>
<path d="" fill="#EB7325" transform="translate(0,0)"/>
<path d="" fill="#EF7423" transform="translate(0,0)"/>
<path d="" fill="#EC7121" transform="translate(0,0)"/>
<path d="" fill="#EC7024" transform="translate(0,0)"/>
<path d="" fill="#EA7125" transform="translate(0,0)"/>
<path d="" fill="#EC7124" transform="translate(0,0)"/>
<path d="" fill="#EC7324" transform="translate(0,0)"/>
<path d="" fill="#EF7021" transform="translate(0,0)"/>
<path d="" fill="#E97224" transform="translate(0,0)"/>
<path d="" fill="#EE7123" transform="translate(0,0)"/>
<path d="" fill="#EE7221" transform="translate(0,0)"/>
<path d="" fill="#EC7121" transform="translate(0,0)"/>
<path d="" fill="#EC7223" transform="translate(0,0)"/>
<path d="" fill="#EE7122" transform="translate(0,0)"/>
<path d="" fill="#ED7321" transform="translate(0,0)"/>
<path d="" fill="#ED7025" transform="translate(0,0)"/>
<path d="" fill="#EF7323" transform="translate(0,0)"/>
<path d="" fill="#EC7123" transform="translate(0,0)"/>
<path d="" fill="#EA6F1F" transform="translate(0,0)"/>
<path d="" fill="#EE7021" transform="translate(0,0)"/>
<path d="" fill="#ED7121" transform="translate(0,0)"/>
<path d="" fill="#ED7324" transform="translate(0,0)"/>
<path d="" fill="#EF7422" transform="translate(0,0)"/>
<path d="" fill="#ED7326" transform="translate(0,0)"/>
<path d="" fill="#F17523" transform="translate(0,0)"/>
<path d="" fill="#ED7322" transform="translate(0,0)"/>
<path d="" fill="#ED7122" transform="translate(0,0)"/>
<path d="" fill="#F17221" transform="translate(0,0)"/>
<path d="" fill="#F07124" transform="translate(0,0)"/>
<path d="" fill="#ED7221" transform="translate(0,0)"/>
<path d="" fill="#ED7124" transform="translate(0,0)"/>
<path d="" fill="#EC7322" transform="translate(0,0)"/>
<path d="" fill="#ED7221" transform="translate(0,0)"/>
<path d="" fill="#EC7320" transform="translate(0,0)"/>
<path d="" fill="#EC7122" transform="translate(0,0)"/>
<path d="" fill="#EF7222" transform="translate(0,0)"/>
<path d="" fill="#EB7226" transform="translate(0,0)"/>
<path d="" fill="#EA7026" transform="translate(0,0)"/>
<path d="" fill="#ED7225" transform="translate(0,0)"/>
<path d="" fill="#EA7124" transform="translate(0,0)"/>
<path d="" fill="#E77226" transform="translate(0,0)"/>
<path d="" fill="#ED7324" transform="translate(0,0)"/>
<path d="" fill="#EE7322" transform="translate(0,0)"/>
<path d="" fill="#E47026" transform="translate(0,0)"/>
<path d="" fill="#E37025" transform="translate(0,0)"/>
<path d="" fill="#E47526" transform="translate(0,0)"/>
<path d="" fill="#EF7223" transform="translate(0,0)"/>
<path d="" fill="#EE7222" transform="translate(0,0)"/>
<path d="" fill="#EE7425" transform="translate(0,0)"/>
<path d="" fill="#EE7425" transform="translate(0,0)"/>
<path d="" fill="#ED7123" transform="translate(0,0)"/>
<path d="" fill="#EF7323" transform="translate(0,0)"/>
<path d="" fill="#EF7425" transform="translate(0,0)"/>
<path d="" fill="#F07223" transform="translate(0,0)"/>
<path d="" fill="#EF7124" transform="translate(0,0)"/>
<path d="" fill="#EC7124" transform="translate(0,0)"/>
<path d="" fill="#EE7021" transform="translate(0,0)"/>
<path d="" fill="#F27120" transform="translate(0,0)"/>
<path d="" fill="#E57326" transform="translate(0,0)"/>
<path d="" fill="#E47326" transform="translate(0,0)"/>
</svg>
